M48
; DRILL file {KiCad (5.1.9)-1} date 01/22/21 19:23:13
; FORMAT={-:-/ absolute / inch / decimal}
; #@! TF.CreationDate,2021-01-22T19:23:13+08:00
; #@! TF.GenerationSoftware,Kicad,Pcbnew,(5.1.9)-1
FMAT,2
INCH
T1C0.0394
%
G90
G05
T1
X3.7795Y-3.8583
X3.7795Y-3.9583
X3.7795Y-4.0583
X3.8189Y-2.5591
X3.8189Y-2.6591
X3.8189Y-2.7591
X3.9189Y-2.5591
X3.9189Y-2.6591
X3.9189Y-2.7591
X4.6063Y-2.5378
X4.6063Y-2.6378
X4.6063Y-2.7378
X4.6063Y-2.8378
X4.6063Y-3.8551
X4.6063Y-3.9551
X4.6063Y-4.0551
X5.0236Y-2.6339
X5.0236Y-2.7339
X5.0236Y-2.8339
X5.0236Y-2.9339
X5.0236Y-3.0339
X5.0236Y-3.1339
X5.0236Y-3.2339
X5.0236Y-3.3339
X5.0236Y-3.4339
X5.0236Y-3.5339
X5.0236Y-3.6339
X5.0236Y-3.7339
X5.0236Y-3.8339
X5.0236Y-3.9339
X5.0236Y-4.0339
X5.6236Y-2.6339
X5.6236Y-2.7339
X5.6236Y-2.8339
X5.6236Y-2.9339
X5.6236Y-3.0339
X5.6236Y-3.1339
X5.6236Y-3.2339
X5.6236Y-3.3339
X5.6236Y-3.4339
X5.6236Y-3.5339
X5.6236Y-3.6339
X5.6236Y-3.7339
X5.6236Y-3.8339
X5.6236Y-3.9339
X5.6236Y-4.0339
X5.9941Y-2.5492
X6.0941Y-2.5492
X6.1941Y-2.5492
X6.2941Y-2.5492
T0
M30
