%TF.GenerationSoftware,KiCad,Pcbnew,(5.1.9)-1*%
%TF.CreationDate,2021-01-22T19:23:28+08:00*%
%TF.ProjectId,SmartLight,536d6172-744c-4696-9768-742e6b696361,rev?*%
%TF.SameCoordinates,Original*%
%TF.FileFunction,Copper,L1,Top*%
%TF.FilePolarity,Positive*%
%FSLAX46Y46*%
G04 Gerber Fmt 4.6, Leading zero omitted, Abs format (unit mm)*
G04 Created by KiCad (PCBNEW (5.1.9)-1) date 2021-01-22 19:23:28*
%MOMM*%
%LPD*%
G01*
G04 APERTURE LIST*
%TA.AperFunction,ComponentPad*%
%ADD10O,1.700000X1.700000*%
%TD*%
%TA.AperFunction,ComponentPad*%
%ADD11R,1.700000X1.700000*%
%TD*%
%TA.AperFunction,ComponentPad*%
%ADD12O,1.600000X1.600000*%
%TD*%
%TA.AperFunction,ComponentPad*%
%ADD13R,1.600000X1.600000*%
%TD*%
%TA.AperFunction,Conductor*%
%ADD14C,0.250000*%
%TD*%
%TA.AperFunction,Conductor*%
%ADD15C,0.762000*%
%TD*%
%TA.AperFunction,Conductor*%
%ADD16C,0.254000*%
%TD*%
%TA.AperFunction,Conductor*%
%ADD17C,0.100000*%
%TD*%
G04 APERTURE END LIST*
%TO.P,R3,2*%
%TO.N,Net-(J3-Pad6)*%
%TA.AperFunction,SMDPad,CuDef*%
G36*
G01*
X108100000Y-69375000D02*
X108100000Y-70625000D01*
G75*
G02*
X107850000Y-70875000I-250000J0D01*
G01*
X107050000Y-70875000D01*
G75*
G02*
X106800000Y-70625000I0J250000D01*
G01*
X106800000Y-69375000D01*
G75*
G02*
X107050000Y-69125000I250000J0D01*
G01*
X107850000Y-69125000D01*
G75*
G02*
X108100000Y-69375000I0J-250000D01*
G01*
G37*
%TD.AperFunction*%
%TO.P,R3,1*%
%TO.N,/GND*%
%TA.AperFunction,SMDPad,CuDef*%
G36*
G01*
X111200000Y-69375000D02*
X111200000Y-70625000D01*
G75*
G02*
X110950000Y-70875000I-250000J0D01*
G01*
X110150000Y-70875000D01*
G75*
G02*
X109900000Y-70625000I0J250000D01*
G01*
X109900000Y-69375000D01*
G75*
G02*
X110150000Y-69125000I250000J0D01*
G01*
X110950000Y-69125000D01*
G75*
G02*
X111200000Y-69375000I0J-250000D01*
G01*
G37*
%TD.AperFunction*%
%TD*%
%TO.P,R2,2*%
%TO.N,/VCC*%
%TA.AperFunction,SMDPad,CuDef*%
G36*
G01*
X105150000Y-61375000D02*
X105150000Y-60125000D01*
G75*
G02*
X105400000Y-59875000I250000J0D01*
G01*
X106200000Y-59875000D01*
G75*
G02*
X106450000Y-60125000I0J-250000D01*
G01*
X106450000Y-61375000D01*
G75*
G02*
X106200000Y-61625000I-250000J0D01*
G01*
X105400000Y-61625000D01*
G75*
G02*
X105150000Y-61375000I0J250000D01*
G01*
G37*
%TD.AperFunction*%
%TO.P,R2,1*%
%TA.AperFunction,SMDPad,CuDef*%
G36*
G01*
X102050000Y-61375000D02*
X102050000Y-60125000D01*
G75*
G02*
X102300000Y-59875000I250000J0D01*
G01*
X103100000Y-59875000D01*
G75*
G02*
X103350000Y-60125000I0J-250000D01*
G01*
X103350000Y-61375000D01*
G75*
G02*
X103100000Y-61625000I-250000J0D01*
G01*
X102300000Y-61625000D01*
G75*
G02*
X102050000Y-61375000I0J250000D01*
G01*
G37*
%TD.AperFunction*%
%TD*%
D10*
%TO.P,J5,4*%
%TO.N,/SDA*%
X159870000Y-64750000D03*
%TO.P,J5,3*%
%TO.N,/SCL*%
X157330000Y-64750000D03*
%TO.P,J5,2*%
%TO.N,/VCC*%
X154790000Y-64750000D03*
D11*
%TO.P,J5,1*%
%TO.N,/GND*%
X152250000Y-64750000D03*
%TD*%
D10*
%TO.P,J4,3*%
%TO.N,/GND*%
X117000000Y-97920000D03*
%TO.P,J4,2*%
%TO.N,/VCC*%
X117000000Y-100460000D03*
D11*
%TO.P,J4,1*%
%TO.N,Net-(A1-Pad10)*%
X117000000Y-103000000D03*
%TD*%
D10*
%TO.P,J3,6*%
%TO.N,Net-(J3-Pad6)*%
X99540000Y-70080000D03*
%TO.P,J3,5*%
%TO.N,Net-(J3-Pad5)*%
X97000000Y-70080000D03*
%TO.P,J3,4*%
%TO.N,Net-(A1-Pad9)*%
X99540000Y-67540000D03*
%TO.P,J3,3*%
%TO.N,Net-(J3-Pad3)*%
X97000000Y-67540000D03*
%TO.P,J3,2*%
%TO.N,/VCC*%
X99540000Y-65000000D03*
D11*
%TO.P,J3,1*%
%TO.N,Net-(J3-Pad1)*%
X97000000Y-65000000D03*
%TD*%
D10*
%TO.P,J2,4*%
%TO.N,/VCC*%
X117000000Y-72080000D03*
%TO.P,J2,3*%
%TO.N,/GND*%
X117000000Y-69540000D03*
D11*
%TO.P,J2,2*%
%TO.N,/TX*%
X117000000Y-67000000D03*
%TO.P,J2,1*%
%TO.N,/RX*%
X117000000Y-64460000D03*
%TD*%
D10*
%TO.P,J1,3*%
%TO.N,/GND*%
X96000000Y-103080000D03*
%TO.P,J1,2*%
%TO.N,Net-(A1-Pad8)*%
X96000000Y-100540000D03*
D11*
%TO.P,J1,1*%
%TO.N,/VCC*%
X96000000Y-98000000D03*
%TD*%
D12*
%TO.P,A1,16*%
%TO.N,Net-(A1-Pad16)*%
X142840000Y-102460000D03*
%TO.P,A1,15*%
%TO.N,Net-(A1-Pad15)*%
X127600000Y-102460000D03*
%TO.P,A1,30*%
%TO.N,/VCC*%
X142840000Y-66900000D03*
%TO.P,A1,14*%
%TO.N,Net-(A1-Pad14)*%
X127600000Y-99920000D03*
%TO.P,A1,29*%
%TO.N,Net-(A1-Pad29)*%
X142840000Y-69440000D03*
%TO.P,A1,13*%
%TO.N,Net-(A1-Pad13)*%
X127600000Y-97380000D03*
%TO.P,A1,28*%
%TO.N,Net-(A1-Pad28)*%
X142840000Y-71980000D03*
%TO.P,A1,12*%
%TO.N,Net-(A1-Pad12)*%
X127600000Y-94840000D03*
%TO.P,A1,27*%
%TO.N,Net-(A1-Pad27)*%
X142840000Y-74520000D03*
%TO.P,A1,11*%
%TO.N,Net-(A1-Pad11)*%
X127600000Y-92300000D03*
%TO.P,A1,26*%
%TO.N,Net-(A1-Pad26)*%
X142840000Y-77060000D03*
%TO.P,A1,10*%
%TO.N,Net-(A1-Pad10)*%
X127600000Y-89760000D03*
%TO.P,A1,25*%
%TO.N,Net-(A1-Pad25)*%
X142840000Y-79600000D03*
%TO.P,A1,9*%
%TO.N,Net-(A1-Pad9)*%
X127600000Y-87220000D03*
%TO.P,A1,24*%
%TO.N,/SCL*%
X142840000Y-82140000D03*
%TO.P,A1,8*%
%TO.N,Net-(A1-Pad8)*%
X127600000Y-84680000D03*
%TO.P,A1,23*%
%TO.N,/SDA*%
X142840000Y-84680000D03*
%TO.P,A1,7*%
%TO.N,Net-(A1-Pad7)*%
X127600000Y-82140000D03*
%TO.P,A1,22*%
%TO.N,Net-(A1-Pad22)*%
X142840000Y-87220000D03*
%TO.P,A1,6*%
%TO.N,Net-(A1-Pad6)*%
X127600000Y-79600000D03*
%TO.P,A1,21*%
%TO.N,Net-(A1-Pad21)*%
X142840000Y-89760000D03*
%TO.P,A1,5*%
%TO.N,Net-(A1-Pad5)*%
X127600000Y-77060000D03*
%TO.P,A1,20*%
%TO.N,Net-(A1-Pad20)*%
X142840000Y-92300000D03*
%TO.P,A1,4*%
%TO.N,/GND*%
X127600000Y-74520000D03*
%TO.P,A1,19*%
%TO.N,Net-(A1-Pad19)*%
X142840000Y-94840000D03*
%TO.P,A1,3*%
%TO.N,Net-(A1-Pad3)*%
X127600000Y-71980000D03*
%TO.P,A1,18*%
%TO.N,Net-(A1-Pad18)*%
X142840000Y-97380000D03*
%TO.P,A1,2*%
%TO.N,/TX*%
X127600000Y-69440000D03*
%TO.P,A1,17*%
%TO.N,Net-(A1-Pad17)*%
X142840000Y-99920000D03*
D13*
%TO.P,A1,1*%
%TO.N,/RX*%
X127600000Y-66900000D03*
%TD*%
D14*
%TO.N,/VCC*%
X104540000Y-60000000D02*
X99540000Y-65000000D01*
X128000000Y-60000000D02*
X104540000Y-60000000D01*
X135940000Y-60000000D02*
X142840000Y-66900000D01*
X131100000Y-60000000D02*
X135940000Y-60000000D01*
X102700000Y-61840000D02*
X99540000Y-65000000D01*
X102700000Y-60750000D02*
X102700000Y-61840000D01*
X105800000Y-60750000D02*
X107050000Y-59500000D01*
X135440000Y-59500000D02*
X142840000Y-66900000D01*
X107050000Y-59500000D02*
X135440000Y-59500000D01*
X154790000Y-64750000D02*
X154790000Y-66460000D01*
X154350000Y-66900000D02*
X142840000Y-66900000D01*
X154790000Y-66460000D02*
X154350000Y-66900000D01*
%TO.N,Net-(A1-Pad10)*%
X117000000Y-103000000D02*
X119000000Y-103000000D01*
X119000000Y-103000000D02*
X121000000Y-101000000D01*
X121000000Y-101000000D02*
X121000000Y-94000000D01*
X125240000Y-89760000D02*
X127600000Y-89760000D01*
X121000000Y-94000000D02*
X125240000Y-89760000D01*
%TO.N,Net-(A1-Pad9)*%
X127600000Y-87220000D02*
X129820000Y-85000000D01*
X129820000Y-85000000D02*
X129820000Y-64820000D01*
X129820000Y-64820000D02*
X126000000Y-61000000D01*
X126000000Y-61000000D02*
X111000000Y-61000000D01*
X104460000Y-67540000D02*
X99540000Y-67540000D01*
X111000000Y-61000000D02*
X104460000Y-67540000D01*
%TO.N,/SCL*%
X157330000Y-66830000D02*
X157330000Y-64750000D01*
X159250000Y-68750000D02*
X157330000Y-66830000D01*
X159250000Y-79500000D02*
X159250000Y-68750000D01*
X155000000Y-83750000D02*
X159250000Y-79500000D01*
X144450000Y-83750000D02*
X155000000Y-83750000D01*
X142840000Y-82140000D02*
X144450000Y-83750000D01*
%TO.N,Net-(A1-Pad8)*%
X114500000Y-97250000D02*
X125570000Y-86180000D01*
X114500000Y-98000000D02*
X114500000Y-97250000D01*
X125570000Y-86180000D02*
X125570000Y-84680000D01*
X111960000Y-100540000D02*
X114500000Y-98000000D01*
X96000000Y-100540000D02*
X111960000Y-100540000D01*
X125570000Y-84680000D02*
X127600000Y-84680000D01*
%TO.N,/SDA*%
X159870000Y-64750000D02*
X159870000Y-79880000D01*
X155070000Y-84680000D02*
X142840000Y-84680000D01*
X159870000Y-79880000D02*
X155070000Y-84680000D01*
D15*
%TO.N,/GND*%
X116540000Y-70000000D02*
X117000000Y-69540000D01*
X110550000Y-70000000D02*
X116540000Y-70000000D01*
D14*
%TO.N,/RX*%
X115824999Y-65824999D02*
X114175001Y-65824999D01*
X117000000Y-67000000D02*
X115824999Y-65824999D01*
X114175001Y-65824999D02*
X114000000Y-65649998D01*
X114000000Y-65649998D02*
X114000000Y-64000000D01*
X114000000Y-64000000D02*
X116000000Y-62000000D01*
X116000000Y-62000000D02*
X118000000Y-62000000D01*
X122900000Y-66900000D02*
X127600000Y-66900000D01*
X118000000Y-62000000D02*
X122900000Y-66900000D01*
%TO.N,/TX*%
X117000000Y-64460000D02*
X118460000Y-64460000D01*
X123440000Y-69440000D02*
X127600000Y-69440000D01*
X118460000Y-64460000D02*
X123440000Y-69440000D01*
D15*
%TO.N,Net-(J3-Pad6)*%
X107370000Y-70080000D02*
X107450000Y-70000000D01*
X99540000Y-70080000D02*
X107370000Y-70080000D01*
%TD*%
D16*
%TO.N,/VCC*%
X163340001Y-111340000D02*
X92660000Y-111340000D01*
X92660000Y-98850000D01*
X94511928Y-98850000D01*
X94524188Y-98974482D01*
X94560498Y-99094180D01*
X94619463Y-99204494D01*
X94698815Y-99301185D01*
X94795506Y-99380537D01*
X94905820Y-99439502D01*
X94978380Y-99461513D01*
X94846525Y-99593368D01*
X94684010Y-99836589D01*
X94572068Y-100106842D01*
X94515000Y-100393740D01*
X94515000Y-100686260D01*
X94572068Y-100973158D01*
X94684010Y-101243411D01*
X94846525Y-101486632D01*
X95053368Y-101693475D01*
X95227760Y-101810000D01*
X95053368Y-101926525D01*
X94846525Y-102133368D01*
X94684010Y-102376589D01*
X94572068Y-102646842D01*
X94515000Y-102933740D01*
X94515000Y-103226260D01*
X94572068Y-103513158D01*
X94684010Y-103783411D01*
X94846525Y-104026632D01*
X95053368Y-104233475D01*
X95296589Y-104395990D01*
X95566842Y-104507932D01*
X95853740Y-104565000D01*
X96146260Y-104565000D01*
X96433158Y-104507932D01*
X96703411Y-104395990D01*
X96946632Y-104233475D01*
X97153475Y-104026632D01*
X97315990Y-103783411D01*
X97427932Y-103513158D01*
X97485000Y-103226260D01*
X97485000Y-102933740D01*
X97427932Y-102646842D01*
X97315990Y-102376589D01*
X97153475Y-102133368D01*
X96946632Y-101926525D01*
X96772240Y-101810000D01*
X96946632Y-101693475D01*
X97153475Y-101486632D01*
X97278178Y-101300000D01*
X111922678Y-101300000D01*
X111960000Y-101303676D01*
X111997322Y-101300000D01*
X111997333Y-101300000D01*
X112108986Y-101289003D01*
X112252247Y-101245546D01*
X112384276Y-101174974D01*
X112500001Y-101080001D01*
X112523804Y-101050997D01*
X115011009Y-98563794D01*
X115040001Y-98540001D01*
X115063795Y-98511008D01*
X115063799Y-98511004D01*
X115134973Y-98424277D01*
X115134974Y-98424276D01*
X115205546Y-98292247D01*
X115249003Y-98148986D01*
X115260000Y-98037333D01*
X115260000Y-98037324D01*
X115263676Y-98000001D01*
X115260000Y-97962678D01*
X115260000Y-97564801D01*
X115836642Y-96988159D01*
X115684010Y-97216589D01*
X115572068Y-97486842D01*
X115515000Y-97773740D01*
X115515000Y-98066260D01*
X115572068Y-98353158D01*
X115684010Y-98623411D01*
X115846525Y-98866632D01*
X116053368Y-99073475D01*
X116235534Y-99195195D01*
X116118645Y-99264822D01*
X115902412Y-99459731D01*
X115728359Y-99693080D01*
X115603175Y-99955901D01*
X115558524Y-100103110D01*
X115679845Y-100333000D01*
X116873000Y-100333000D01*
X116873000Y-100313000D01*
X117127000Y-100313000D01*
X117127000Y-100333000D01*
X118320155Y-100333000D01*
X118441476Y-100103110D01*
X118396825Y-99955901D01*
X118271641Y-99693080D01*
X118097588Y-99459731D01*
X117881355Y-99264822D01*
X117764466Y-99195195D01*
X117946632Y-99073475D01*
X118153475Y-98866632D01*
X118315990Y-98623411D01*
X118427932Y-98353158D01*
X118485000Y-98066260D01*
X118485000Y-97773740D01*
X118427932Y-97486842D01*
X118315990Y-97216589D01*
X118153475Y-96973368D01*
X117946632Y-96766525D01*
X117703411Y-96604010D01*
X117433158Y-96492068D01*
X117146260Y-96435000D01*
X116853740Y-96435000D01*
X116566842Y-96492068D01*
X116296589Y-96604010D01*
X116068159Y-96756642D01*
X126081004Y-86743798D01*
X126110001Y-86720001D01*
X126136332Y-86687917D01*
X126204974Y-86604277D01*
X126275546Y-86472247D01*
X126275546Y-86472246D01*
X126319003Y-86328986D01*
X126330000Y-86217333D01*
X126330000Y-86217324D01*
X126333676Y-86180001D01*
X126330000Y-86142678D01*
X126330000Y-85440000D01*
X126381957Y-85440000D01*
X126485363Y-85594759D01*
X126685241Y-85794637D01*
X126917759Y-85950000D01*
X126685241Y-86105363D01*
X126485363Y-86305241D01*
X126328320Y-86540273D01*
X126220147Y-86801426D01*
X126165000Y-87078665D01*
X126165000Y-87361335D01*
X126220147Y-87638574D01*
X126328320Y-87899727D01*
X126485363Y-88134759D01*
X126685241Y-88334637D01*
X126917759Y-88490000D01*
X126685241Y-88645363D01*
X126485363Y-88845241D01*
X126381957Y-89000000D01*
X125277333Y-89000000D01*
X125240000Y-88996323D01*
X125202667Y-89000000D01*
X125091014Y-89010997D01*
X124947753Y-89054454D01*
X124815724Y-89125026D01*
X124699999Y-89219999D01*
X124676201Y-89248997D01*
X120488998Y-93436201D01*
X120460000Y-93459999D01*
X120436202Y-93488997D01*
X120436201Y-93488998D01*
X120365026Y-93575724D01*
X120294454Y-93707754D01*
X120250998Y-93851015D01*
X120236324Y-94000000D01*
X120240001Y-94037332D01*
X120240000Y-100685198D01*
X118685199Y-102240000D01*
X118488072Y-102240000D01*
X118488072Y-102150000D01*
X118475812Y-102025518D01*
X118439502Y-101905820D01*
X118380537Y-101795506D01*
X118301185Y-101698815D01*
X118204494Y-101619463D01*
X118094180Y-101560498D01*
X118013534Y-101536034D01*
X118097588Y-101460269D01*
X118271641Y-101226920D01*
X118396825Y-100964099D01*
X118441476Y-100816890D01*
X118320155Y-100587000D01*
X117127000Y-100587000D01*
X117127000Y-100607000D01*
X116873000Y-100607000D01*
X116873000Y-100587000D01*
X115679845Y-100587000D01*
X115558524Y-100816890D01*
X115603175Y-100964099D01*
X115728359Y-101226920D01*
X115902412Y-101460269D01*
X115986466Y-101536034D01*
X115905820Y-101560498D01*
X115795506Y-101619463D01*
X115698815Y-101698815D01*
X115619463Y-101795506D01*
X115560498Y-101905820D01*
X115524188Y-102025518D01*
X115511928Y-102150000D01*
X115511928Y-103850000D01*
X115524188Y-103974482D01*
X115560498Y-104094180D01*
X115619463Y-104204494D01*
X115698815Y-104301185D01*
X115795506Y-104380537D01*
X115905820Y-104439502D01*
X116025518Y-104475812D01*
X116150000Y-104488072D01*
X117850000Y-104488072D01*
X117974482Y-104475812D01*
X118094180Y-104439502D01*
X118204494Y-104380537D01*
X118301185Y-104301185D01*
X118380537Y-104204494D01*
X118439502Y-104094180D01*
X118475812Y-103974482D01*
X118488072Y-103850000D01*
X118488072Y-103760000D01*
X118962678Y-103760000D01*
X119000000Y-103763676D01*
X119037322Y-103760000D01*
X119037333Y-103760000D01*
X119148986Y-103749003D01*
X119292247Y-103705546D01*
X119424276Y-103634974D01*
X119540001Y-103540001D01*
X119563804Y-103510997D01*
X121511004Y-101563798D01*
X121540001Y-101540001D01*
X121583800Y-101486632D01*
X121634974Y-101424277D01*
X121705546Y-101292247D01*
X121737071Y-101188320D01*
X121749003Y-101148986D01*
X121760000Y-101037333D01*
X121760000Y-101037324D01*
X121763676Y-101000001D01*
X121760000Y-100962678D01*
X121760000Y-94314801D01*
X125554802Y-90520000D01*
X126381957Y-90520000D01*
X126485363Y-90674759D01*
X126685241Y-90874637D01*
X126917759Y-91030000D01*
X126685241Y-91185363D01*
X126485363Y-91385241D01*
X126328320Y-91620273D01*
X126220147Y-91881426D01*
X126165000Y-92158665D01*
X126165000Y-92441335D01*
X126220147Y-92718574D01*
X126328320Y-92979727D01*
X126485363Y-93214759D01*
X126685241Y-93414637D01*
X126917759Y-93570000D01*
X126685241Y-93725363D01*
X126485363Y-93925241D01*
X126328320Y-94160273D01*
X126220147Y-94421426D01*
X126165000Y-94698665D01*
X126165000Y-94981335D01*
X126220147Y-95258574D01*
X126328320Y-95519727D01*
X126485363Y-95754759D01*
X126685241Y-95954637D01*
X126917759Y-96110000D01*
X126685241Y-96265363D01*
X126485363Y-96465241D01*
X126328320Y-96700273D01*
X126220147Y-96961426D01*
X126165000Y-97238665D01*
X126165000Y-97521335D01*
X126220147Y-97798574D01*
X126328320Y-98059727D01*
X126485363Y-98294759D01*
X126685241Y-98494637D01*
X126917759Y-98650000D01*
X126685241Y-98805363D01*
X126485363Y-99005241D01*
X126328320Y-99240273D01*
X126220147Y-99501426D01*
X126165000Y-99778665D01*
X126165000Y-100061335D01*
X126220147Y-100338574D01*
X126328320Y-100599727D01*
X126485363Y-100834759D01*
X126685241Y-101034637D01*
X126917759Y-101190000D01*
X126685241Y-101345363D01*
X126485363Y-101545241D01*
X126328320Y-101780273D01*
X126220147Y-102041426D01*
X126165000Y-102318665D01*
X126165000Y-102601335D01*
X126220147Y-102878574D01*
X126328320Y-103139727D01*
X126485363Y-103374759D01*
X126685241Y-103574637D01*
X126920273Y-103731680D01*
X127181426Y-103839853D01*
X127458665Y-103895000D01*
X127741335Y-103895000D01*
X128018574Y-103839853D01*
X128279727Y-103731680D01*
X128514759Y-103574637D01*
X128714637Y-103374759D01*
X128871680Y-103139727D01*
X128979853Y-102878574D01*
X129035000Y-102601335D01*
X129035000Y-102318665D01*
X128979853Y-102041426D01*
X128871680Y-101780273D01*
X128714637Y-101545241D01*
X128514759Y-101345363D01*
X128282241Y-101190000D01*
X128514759Y-101034637D01*
X128714637Y-100834759D01*
X128871680Y-100599727D01*
X128979853Y-100338574D01*
X129035000Y-100061335D01*
X129035000Y-99778665D01*
X128979853Y-99501426D01*
X128871680Y-99240273D01*
X128714637Y-99005241D01*
X128514759Y-98805363D01*
X128282241Y-98650000D01*
X128514759Y-98494637D01*
X128714637Y-98294759D01*
X128871680Y-98059727D01*
X128979853Y-97798574D01*
X129035000Y-97521335D01*
X129035000Y-97238665D01*
X128979853Y-96961426D01*
X128871680Y-96700273D01*
X128714637Y-96465241D01*
X128514759Y-96265363D01*
X128282241Y-96110000D01*
X128514759Y-95954637D01*
X128714637Y-95754759D01*
X128871680Y-95519727D01*
X128979853Y-95258574D01*
X129035000Y-94981335D01*
X129035000Y-94698665D01*
X128979853Y-94421426D01*
X128871680Y-94160273D01*
X128714637Y-93925241D01*
X128514759Y-93725363D01*
X128282241Y-93570000D01*
X128514759Y-93414637D01*
X128714637Y-93214759D01*
X128871680Y-92979727D01*
X128979853Y-92718574D01*
X129035000Y-92441335D01*
X129035000Y-92158665D01*
X128979853Y-91881426D01*
X128871680Y-91620273D01*
X128714637Y-91385241D01*
X128514759Y-91185363D01*
X128282241Y-91030000D01*
X128514759Y-90874637D01*
X128714637Y-90674759D01*
X128871680Y-90439727D01*
X128979853Y-90178574D01*
X129035000Y-89901335D01*
X129035000Y-89618665D01*
X128979853Y-89341426D01*
X128871680Y-89080273D01*
X128714637Y-88845241D01*
X128514759Y-88645363D01*
X128282241Y-88490000D01*
X128514759Y-88334637D01*
X128714637Y-88134759D01*
X128871680Y-87899727D01*
X128979853Y-87638574D01*
X129035000Y-87361335D01*
X129035000Y-87078665D01*
X128998688Y-86896114D01*
X130331004Y-85563798D01*
X130360001Y-85540001D01*
X130442070Y-85440000D01*
X130454974Y-85424277D01*
X130525546Y-85292247D01*
X130547461Y-85220001D01*
X130569003Y-85148986D01*
X130580000Y-85037333D01*
X130580000Y-85037324D01*
X130583676Y-85000001D01*
X130580000Y-84962678D01*
X130580000Y-69298665D01*
X141405000Y-69298665D01*
X141405000Y-69581335D01*
X141460147Y-69858574D01*
X141568320Y-70119727D01*
X141725363Y-70354759D01*
X141925241Y-70554637D01*
X142157759Y-70710000D01*
X141925241Y-70865363D01*
X141725363Y-71065241D01*
X141568320Y-71300273D01*
X141460147Y-71561426D01*
X141405000Y-71838665D01*
X141405000Y-72121335D01*
X141460147Y-72398574D01*
X141568320Y-72659727D01*
X141725363Y-72894759D01*
X141925241Y-73094637D01*
X142157759Y-73250000D01*
X141925241Y-73405363D01*
X141725363Y-73605241D01*
X141568320Y-73840273D01*
X141460147Y-74101426D01*
X141405000Y-74378665D01*
X141405000Y-74661335D01*
X141460147Y-74938574D01*
X141568320Y-75199727D01*
X141725363Y-75434759D01*
X141925241Y-75634637D01*
X142157759Y-75790000D01*
X141925241Y-75945363D01*
X141725363Y-76145241D01*
X141568320Y-76380273D01*
X141460147Y-76641426D01*
X141405000Y-76918665D01*
X141405000Y-77201335D01*
X141460147Y-77478574D01*
X141568320Y-77739727D01*
X141725363Y-77974759D01*
X141925241Y-78174637D01*
X142157759Y-78330000D01*
X141925241Y-78485363D01*
X141725363Y-78685241D01*
X141568320Y-78920273D01*
X141460147Y-79181426D01*
X141405000Y-79458665D01*
X141405000Y-79741335D01*
X141460147Y-80018574D01*
X141568320Y-80279727D01*
X141725363Y-80514759D01*
X141925241Y-80714637D01*
X142157759Y-80870000D01*
X141925241Y-81025363D01*
X141725363Y-81225241D01*
X141568320Y-81460273D01*
X141460147Y-81721426D01*
X141405000Y-81998665D01*
X141405000Y-82281335D01*
X141460147Y-82558574D01*
X141568320Y-82819727D01*
X141725363Y-83054759D01*
X141925241Y-83254637D01*
X142157759Y-83410000D01*
X141925241Y-83565363D01*
X141725363Y-83765241D01*
X141568320Y-84000273D01*
X141460147Y-84261426D01*
X141405000Y-84538665D01*
X141405000Y-84821335D01*
X141460147Y-85098574D01*
X141568320Y-85359727D01*
X141725363Y-85594759D01*
X141925241Y-85794637D01*
X142157759Y-85950000D01*
X141925241Y-86105363D01*
X141725363Y-86305241D01*
X141568320Y-86540273D01*
X141460147Y-86801426D01*
X141405000Y-87078665D01*
X141405000Y-87361335D01*
X141460147Y-87638574D01*
X141568320Y-87899727D01*
X141725363Y-88134759D01*
X141925241Y-88334637D01*
X142157759Y-88490000D01*
X141925241Y-88645363D01*
X141725363Y-88845241D01*
X141568320Y-89080273D01*
X141460147Y-89341426D01*
X141405000Y-89618665D01*
X141405000Y-89901335D01*
X141460147Y-90178574D01*
X141568320Y-90439727D01*
X141725363Y-90674759D01*
X141925241Y-90874637D01*
X142157759Y-91030000D01*
X141925241Y-91185363D01*
X141725363Y-91385241D01*
X141568320Y-91620273D01*
X141460147Y-91881426D01*
X141405000Y-92158665D01*
X141405000Y-92441335D01*
X141460147Y-92718574D01*
X141568320Y-92979727D01*
X141725363Y-93214759D01*
X141925241Y-93414637D01*
X142157759Y-93570000D01*
X141925241Y-93725363D01*
X141725363Y-93925241D01*
X141568320Y-94160273D01*
X141460147Y-94421426D01*
X141405000Y-94698665D01*
X141405000Y-94981335D01*
X141460147Y-95258574D01*
X141568320Y-95519727D01*
X141725363Y-95754759D01*
X141925241Y-95954637D01*
X142157759Y-96110000D01*
X141925241Y-96265363D01*
X141725363Y-96465241D01*
X141568320Y-96700273D01*
X141460147Y-96961426D01*
X141405000Y-97238665D01*
X141405000Y-97521335D01*
X141460147Y-97798574D01*
X141568320Y-98059727D01*
X141725363Y-98294759D01*
X141925241Y-98494637D01*
X142157759Y-98650000D01*
X141925241Y-98805363D01*
X141725363Y-99005241D01*
X141568320Y-99240273D01*
X141460147Y-99501426D01*
X141405000Y-99778665D01*
X141405000Y-100061335D01*
X141460147Y-100338574D01*
X141568320Y-100599727D01*
X141725363Y-100834759D01*
X141925241Y-101034637D01*
X142157759Y-101190000D01*
X141925241Y-101345363D01*
X141725363Y-101545241D01*
X141568320Y-101780273D01*
X141460147Y-102041426D01*
X141405000Y-102318665D01*
X141405000Y-102601335D01*
X141460147Y-102878574D01*
X141568320Y-103139727D01*
X141725363Y-103374759D01*
X141925241Y-103574637D01*
X142160273Y-103731680D01*
X142421426Y-103839853D01*
X142698665Y-103895000D01*
X142981335Y-103895000D01*
X143258574Y-103839853D01*
X143519727Y-103731680D01*
X143754759Y-103574637D01*
X143954637Y-103374759D01*
X144111680Y-103139727D01*
X144219853Y-102878574D01*
X144275000Y-102601335D01*
X144275000Y-102318665D01*
X144219853Y-102041426D01*
X144111680Y-101780273D01*
X143954637Y-101545241D01*
X143754759Y-101345363D01*
X143522241Y-101190000D01*
X143754759Y-101034637D01*
X143954637Y-100834759D01*
X144111680Y-100599727D01*
X144219853Y-100338574D01*
X144275000Y-100061335D01*
X144275000Y-99778665D01*
X144219853Y-99501426D01*
X144111680Y-99240273D01*
X143954637Y-99005241D01*
X143754759Y-98805363D01*
X143522241Y-98650000D01*
X143754759Y-98494637D01*
X143954637Y-98294759D01*
X144111680Y-98059727D01*
X144219853Y-97798574D01*
X144275000Y-97521335D01*
X144275000Y-97238665D01*
X144219853Y-96961426D01*
X144111680Y-96700273D01*
X143954637Y-96465241D01*
X143754759Y-96265363D01*
X143522241Y-96110000D01*
X143754759Y-95954637D01*
X143954637Y-95754759D01*
X144111680Y-95519727D01*
X144219853Y-95258574D01*
X144275000Y-94981335D01*
X144275000Y-94698665D01*
X144219853Y-94421426D01*
X144111680Y-94160273D01*
X143954637Y-93925241D01*
X143754759Y-93725363D01*
X143522241Y-93570000D01*
X143754759Y-93414637D01*
X143954637Y-93214759D01*
X144111680Y-92979727D01*
X144219853Y-92718574D01*
X144275000Y-92441335D01*
X144275000Y-92158665D01*
X144219853Y-91881426D01*
X144111680Y-91620273D01*
X143954637Y-91385241D01*
X143754759Y-91185363D01*
X143522241Y-91030000D01*
X143754759Y-90874637D01*
X143954637Y-90674759D01*
X144111680Y-90439727D01*
X144219853Y-90178574D01*
X144275000Y-89901335D01*
X144275000Y-89618665D01*
X144219853Y-89341426D01*
X144111680Y-89080273D01*
X143954637Y-88845241D01*
X143754759Y-88645363D01*
X143522241Y-88490000D01*
X143754759Y-88334637D01*
X143954637Y-88134759D01*
X144111680Y-87899727D01*
X144219853Y-87638574D01*
X144275000Y-87361335D01*
X144275000Y-87078665D01*
X144219853Y-86801426D01*
X144111680Y-86540273D01*
X143954637Y-86305241D01*
X143754759Y-86105363D01*
X143522241Y-85950000D01*
X143754759Y-85794637D01*
X143954637Y-85594759D01*
X144058043Y-85440000D01*
X155032678Y-85440000D01*
X155070000Y-85443676D01*
X155107322Y-85440000D01*
X155107333Y-85440000D01*
X155218986Y-85429003D01*
X155362247Y-85385546D01*
X155494276Y-85314974D01*
X155610001Y-85220001D01*
X155633804Y-85190997D01*
X160381003Y-80443799D01*
X160410001Y-80420001D01*
X160436332Y-80387917D01*
X160504974Y-80304277D01*
X160575546Y-80172247D01*
X160586852Y-80134974D01*
X160619003Y-80028986D01*
X160630000Y-79917333D01*
X160630000Y-79917324D01*
X160633676Y-79880001D01*
X160630000Y-79842678D01*
X160630000Y-66028178D01*
X160816632Y-65903475D01*
X161023475Y-65696632D01*
X161185990Y-65453411D01*
X161297932Y-65183158D01*
X161355000Y-64896260D01*
X161355000Y-64603740D01*
X161297932Y-64316842D01*
X161185990Y-64046589D01*
X161023475Y-63803368D01*
X160816632Y-63596525D01*
X160573411Y-63434010D01*
X160303158Y-63322068D01*
X160016260Y-63265000D01*
X159723740Y-63265000D01*
X159436842Y-63322068D01*
X159166589Y-63434010D01*
X158923368Y-63596525D01*
X158716525Y-63803368D01*
X158600000Y-63977760D01*
X158483475Y-63803368D01*
X158276632Y-63596525D01*
X158033411Y-63434010D01*
X157763158Y-63322068D01*
X157476260Y-63265000D01*
X157183740Y-63265000D01*
X156896842Y-63322068D01*
X156626589Y-63434010D01*
X156383368Y-63596525D01*
X156176525Y-63803368D01*
X156054805Y-63985534D01*
X155985178Y-63868645D01*
X155790269Y-63652412D01*
X155556920Y-63478359D01*
X155294099Y-63353175D01*
X155146890Y-63308524D01*
X154917000Y-63429845D01*
X154917000Y-64623000D01*
X154937000Y-64623000D01*
X154937000Y-64877000D01*
X154917000Y-64877000D01*
X154917000Y-66070155D01*
X155146890Y-66191476D01*
X155294099Y-66146825D01*
X155556920Y-66021641D01*
X155790269Y-65847588D01*
X155985178Y-65631355D01*
X156054805Y-65514466D01*
X156176525Y-65696632D01*
X156383368Y-65903475D01*
X156570000Y-66028179D01*
X156570000Y-66792677D01*
X156566324Y-66830000D01*
X156570000Y-66867322D01*
X156570000Y-66867332D01*
X156580997Y-66978985D01*
X156619781Y-67106842D01*
X156624454Y-67122246D01*
X156695026Y-67254276D01*
X156726188Y-67292246D01*
X156789999Y-67370001D01*
X156819003Y-67393804D01*
X158490001Y-69064803D01*
X158490000Y-79185198D01*
X154685199Y-82990000D01*
X144764802Y-82990000D01*
X144238688Y-82463886D01*
X144275000Y-82281335D01*
X144275000Y-81998665D01*
X144219853Y-81721426D01*
X144111680Y-81460273D01*
X143954637Y-81225241D01*
X143754759Y-81025363D01*
X143522241Y-80870000D01*
X143754759Y-80714637D01*
X143954637Y-80514759D01*
X144111680Y-80279727D01*
X144219853Y-80018574D01*
X144275000Y-79741335D01*
X144275000Y-79458665D01*
X144219853Y-79181426D01*
X144111680Y-78920273D01*
X143954637Y-78685241D01*
X143754759Y-78485363D01*
X143522241Y-78330000D01*
X143754759Y-78174637D01*
X143954637Y-77974759D01*
X144111680Y-77739727D01*
X144219853Y-77478574D01*
X144275000Y-77201335D01*
X144275000Y-76918665D01*
X144219853Y-76641426D01*
X144111680Y-76380273D01*
X143954637Y-76145241D01*
X143754759Y-75945363D01*
X143522241Y-75790000D01*
X143754759Y-75634637D01*
X143954637Y-75434759D01*
X144111680Y-75199727D01*
X144219853Y-74938574D01*
X144275000Y-74661335D01*
X144275000Y-74378665D01*
X144219853Y-74101426D01*
X144111680Y-73840273D01*
X143954637Y-73605241D01*
X143754759Y-73405363D01*
X143522241Y-73250000D01*
X143754759Y-73094637D01*
X143954637Y-72894759D01*
X144111680Y-72659727D01*
X144219853Y-72398574D01*
X144275000Y-72121335D01*
X144275000Y-71838665D01*
X144219853Y-71561426D01*
X144111680Y-71300273D01*
X143954637Y-71065241D01*
X143754759Y-70865363D01*
X143522241Y-70710000D01*
X143754759Y-70554637D01*
X143954637Y-70354759D01*
X144111680Y-70119727D01*
X144219853Y-69858574D01*
X144275000Y-69581335D01*
X144275000Y-69298665D01*
X144219853Y-69021426D01*
X144111680Y-68760273D01*
X143954637Y-68525241D01*
X143754759Y-68325363D01*
X143519727Y-68168320D01*
X143509135Y-68163933D01*
X143695131Y-68052385D01*
X143903519Y-67863414D01*
X144071037Y-67637420D01*
X144191246Y-67383087D01*
X144231904Y-67249039D01*
X144109915Y-67027000D01*
X142967000Y-67027000D01*
X142967000Y-67047000D01*
X142713000Y-67047000D01*
X142713000Y-67027000D01*
X141570085Y-67027000D01*
X141448096Y-67249039D01*
X141488754Y-67383087D01*
X141608963Y-67637420D01*
X141776481Y-67863414D01*
X141984869Y-68052385D01*
X142170865Y-68163933D01*
X142160273Y-68168320D01*
X141925241Y-68325363D01*
X141725363Y-68525241D01*
X141568320Y-68760273D01*
X141460147Y-69021426D01*
X141405000Y-69298665D01*
X130580000Y-69298665D01*
X130580000Y-66550961D01*
X141448096Y-66550961D01*
X141570085Y-66773000D01*
X142713000Y-66773000D01*
X142713000Y-65629376D01*
X142967000Y-65629376D01*
X142967000Y-66773000D01*
X144109915Y-66773000D01*
X144231904Y-66550961D01*
X144191246Y-66416913D01*
X144071037Y-66162580D01*
X143903519Y-65936586D01*
X143695131Y-65747615D01*
X143453881Y-65602930D01*
X143189040Y-65508091D01*
X142967000Y-65629376D01*
X142713000Y-65629376D01*
X142490960Y-65508091D01*
X142226119Y-65602930D01*
X141984869Y-65747615D01*
X141776481Y-65936586D01*
X141608963Y-66162580D01*
X141488754Y-66416913D01*
X141448096Y-66550961D01*
X130580000Y-66550961D01*
X130580000Y-64857323D01*
X130583676Y-64820000D01*
X130580000Y-64782677D01*
X130580000Y-64782667D01*
X130569003Y-64671014D01*
X130525546Y-64527753D01*
X130454974Y-64395724D01*
X130360001Y-64279999D01*
X130331003Y-64256201D01*
X129974802Y-63900000D01*
X150761928Y-63900000D01*
X150761928Y-65600000D01*
X150774188Y-65724482D01*
X150810498Y-65844180D01*
X150869463Y-65954494D01*
X150948815Y-66051185D01*
X151045506Y-66130537D01*
X151155820Y-66189502D01*
X151275518Y-66225812D01*
X151400000Y-66238072D01*
X153100000Y-66238072D01*
X153224482Y-66225812D01*
X153344180Y-66189502D01*
X153454494Y-66130537D01*
X153551185Y-66051185D01*
X153630537Y-65954494D01*
X153689502Y-65844180D01*
X153713966Y-65763534D01*
X153789731Y-65847588D01*
X154023080Y-66021641D01*
X154285901Y-66146825D01*
X154433110Y-66191476D01*
X154663000Y-66070155D01*
X154663000Y-64877000D01*
X154643000Y-64877000D01*
X154643000Y-64623000D01*
X154663000Y-64623000D01*
X154663000Y-63429845D01*
X154433110Y-63308524D01*
X154285901Y-63353175D01*
X154023080Y-63478359D01*
X153789731Y-63652412D01*
X153713966Y-63736466D01*
X153689502Y-63655820D01*
X153630537Y-63545506D01*
X153551185Y-63448815D01*
X153454494Y-63369463D01*
X153344180Y-63310498D01*
X153224482Y-63274188D01*
X153100000Y-63261928D01*
X151400000Y-63261928D01*
X151275518Y-63274188D01*
X151155820Y-63310498D01*
X151045506Y-63369463D01*
X150948815Y-63448815D01*
X150869463Y-63545506D01*
X150810498Y-63655820D01*
X150774188Y-63775518D01*
X150761928Y-63900000D01*
X129974802Y-63900000D01*
X126563804Y-60489003D01*
X126540001Y-60459999D01*
X126424276Y-60365026D01*
X126292247Y-60294454D01*
X126148986Y-60250997D01*
X126037333Y-60240000D01*
X126037322Y-60240000D01*
X126000000Y-60236324D01*
X125962678Y-60240000D01*
X111037325Y-60240000D01*
X111000000Y-60236324D01*
X110962675Y-60240000D01*
X110962667Y-60240000D01*
X110851014Y-60250997D01*
X110707753Y-60294454D01*
X110575724Y-60365026D01*
X110459999Y-60459999D01*
X110436201Y-60488997D01*
X104145199Y-66780000D01*
X100818178Y-66780000D01*
X100693475Y-66593368D01*
X100486632Y-66386525D01*
X100304466Y-66264805D01*
X100421355Y-66195178D01*
X100637588Y-66000269D01*
X100811641Y-65766920D01*
X100936825Y-65504099D01*
X100981476Y-65356890D01*
X100860155Y-65127000D01*
X99667000Y-65127000D01*
X99667000Y-65147000D01*
X99413000Y-65147000D01*
X99413000Y-65127000D01*
X99393000Y-65127000D01*
X99393000Y-64873000D01*
X99413000Y-64873000D01*
X99413000Y-63679186D01*
X99667000Y-63679186D01*
X99667000Y-64873000D01*
X100860155Y-64873000D01*
X100981476Y-64643110D01*
X100936825Y-64495901D01*
X100811641Y-64233080D01*
X100637588Y-63999731D01*
X100421355Y-63804822D01*
X100171252Y-63655843D01*
X99896891Y-63558519D01*
X99667000Y-63679186D01*
X99413000Y-63679186D01*
X99183109Y-63558519D01*
X98908748Y-63655843D01*
X98658645Y-63804822D01*
X98462498Y-63981626D01*
X98439502Y-63905820D01*
X98380537Y-63795506D01*
X98301185Y-63698815D01*
X98204494Y-63619463D01*
X98094180Y-63560498D01*
X97974482Y-63524188D01*
X97850000Y-63511928D01*
X96150000Y-63511928D01*
X96025518Y-63524188D01*
X95905820Y-63560498D01*
X95795506Y-63619463D01*
X95698815Y-63698815D01*
X95619463Y-63795506D01*
X95560498Y-63905820D01*
X95524188Y-64025518D01*
X95511928Y-64150000D01*
X95511928Y-65850000D01*
X95524188Y-65974482D01*
X95560498Y-66094180D01*
X95619463Y-66204494D01*
X95698815Y-66301185D01*
X95795506Y-66380537D01*
X95905820Y-66439502D01*
X95978380Y-66461513D01*
X95846525Y-66593368D01*
X95684010Y-66836589D01*
X95572068Y-67106842D01*
X95515000Y-67393740D01*
X95515000Y-67686260D01*
X95572068Y-67973158D01*
X95684010Y-68243411D01*
X95846525Y-68486632D01*
X96053368Y-68693475D01*
X96227760Y-68810000D01*
X96053368Y-68926525D01*
X95846525Y-69133368D01*
X95684010Y-69376589D01*
X95572068Y-69646842D01*
X95515000Y-69933740D01*
X95515000Y-70226260D01*
X95572068Y-70513158D01*
X95684010Y-70783411D01*
X95846525Y-71026632D01*
X96053368Y-71233475D01*
X96296589Y-71395990D01*
X96566842Y-71507932D01*
X96853740Y-71565000D01*
X97146260Y-71565000D01*
X97433158Y-71507932D01*
X97703411Y-71395990D01*
X97946632Y-71233475D01*
X98153475Y-71026632D01*
X98270000Y-70852240D01*
X98386525Y-71026632D01*
X98593368Y-71233475D01*
X98836589Y-71395990D01*
X99106842Y-71507932D01*
X99393740Y-71565000D01*
X99686260Y-71565000D01*
X99973158Y-71507932D01*
X100243411Y-71395990D01*
X100486632Y-71233475D01*
X100624107Y-71096000D01*
X106299629Y-71096000D01*
X106311595Y-71118386D01*
X106422038Y-71252962D01*
X106556614Y-71363405D01*
X106710150Y-71445472D01*
X106876746Y-71496008D01*
X107050000Y-71513072D01*
X107850000Y-71513072D01*
X108023254Y-71496008D01*
X108189850Y-71445472D01*
X108343386Y-71363405D01*
X108477962Y-71252962D01*
X108588405Y-71118386D01*
X108670472Y-70964850D01*
X108721008Y-70798254D01*
X108738072Y-70625000D01*
X108738072Y-69375000D01*
X108721008Y-69201746D01*
X108670472Y-69035150D01*
X108588405Y-68881614D01*
X108477962Y-68747038D01*
X108343386Y-68636595D01*
X108189850Y-68554528D01*
X108023254Y-68503992D01*
X107850000Y-68486928D01*
X107050000Y-68486928D01*
X106876746Y-68503992D01*
X106710150Y-68554528D01*
X106556614Y-68636595D01*
X106422038Y-68747038D01*
X106311595Y-68881614D01*
X106229528Y-69035150D01*
X106220777Y-69064000D01*
X100624107Y-69064000D01*
X100486632Y-68926525D01*
X100312240Y-68810000D01*
X100486632Y-68693475D01*
X100693475Y-68486632D01*
X100818178Y-68300000D01*
X104422678Y-68300000D01*
X104460000Y-68303676D01*
X104497322Y-68300000D01*
X104497333Y-68300000D01*
X104608986Y-68289003D01*
X104752247Y-68245546D01*
X104884276Y-68174974D01*
X105000001Y-68080001D01*
X105023804Y-68050997D01*
X111314802Y-61760000D01*
X115165198Y-61760000D01*
X113488998Y-63436201D01*
X113460000Y-63459999D01*
X113436202Y-63488997D01*
X113436201Y-63488998D01*
X113365026Y-63575724D01*
X113294454Y-63707754D01*
X113273899Y-63775518D01*
X113250998Y-63851014D01*
X113240001Y-63962667D01*
X113236324Y-64000000D01*
X113240001Y-64037332D01*
X113240000Y-65612675D01*
X113236324Y-65649998D01*
X113240000Y-65687320D01*
X113240000Y-65687330D01*
X113250997Y-65798983D01*
X113281489Y-65899502D01*
X113294454Y-65942244D01*
X113365026Y-66074274D01*
X113381363Y-66094180D01*
X113459999Y-66189999D01*
X113489003Y-66213802D01*
X113611197Y-66335996D01*
X113635000Y-66365000D01*
X113750725Y-66459973D01*
X113882754Y-66530545D01*
X114026015Y-66574002D01*
X114137668Y-66584999D01*
X114137676Y-66584999D01*
X114175001Y-66588675D01*
X114212326Y-66584999D01*
X115510198Y-66584999D01*
X115511928Y-66586729D01*
X115511928Y-67850000D01*
X115524188Y-67974482D01*
X115560498Y-68094180D01*
X115619463Y-68204494D01*
X115698815Y-68301185D01*
X115795506Y-68380537D01*
X115905820Y-68439502D01*
X115978380Y-68461513D01*
X115846525Y-68593368D01*
X115684010Y-68836589D01*
X115622951Y-68984000D01*
X111743132Y-68984000D01*
X111688405Y-68881614D01*
X111577962Y-68747038D01*
X111443386Y-68636595D01*
X111289850Y-68554528D01*
X111123254Y-68503992D01*
X110950000Y-68486928D01*
X110150000Y-68486928D01*
X109976746Y-68503992D01*
X109810150Y-68554528D01*
X109656614Y-68636595D01*
X109522038Y-68747038D01*
X109411595Y-68881614D01*
X109329528Y-69035150D01*
X109278992Y-69201746D01*
X109261928Y-69375000D01*
X109261928Y-70625000D01*
X109278992Y-70798254D01*
X109329528Y-70964850D01*
X109411595Y-71118386D01*
X109522038Y-71252962D01*
X109656614Y-71363405D01*
X109810150Y-71445472D01*
X109976746Y-71496008D01*
X110150000Y-71513072D01*
X110950000Y-71513072D01*
X111123254Y-71496008D01*
X111289850Y-71445472D01*
X111443386Y-71363405D01*
X111577962Y-71252962D01*
X111688405Y-71118386D01*
X111743132Y-71016000D01*
X115973115Y-71016000D01*
X115902412Y-71079731D01*
X115728359Y-71313080D01*
X115603175Y-71575901D01*
X115558524Y-71723110D01*
X115679845Y-71953000D01*
X116873000Y-71953000D01*
X116873000Y-71933000D01*
X117127000Y-71933000D01*
X117127000Y-71953000D01*
X118320155Y-71953000D01*
X118441476Y-71723110D01*
X118396825Y-71575901D01*
X118271641Y-71313080D01*
X118097588Y-71079731D01*
X117881355Y-70884822D01*
X117764466Y-70815195D01*
X117946632Y-70693475D01*
X118153475Y-70486632D01*
X118315990Y-70243411D01*
X118427932Y-69973158D01*
X118485000Y-69686260D01*
X118485000Y-69393740D01*
X118427932Y-69106842D01*
X118315990Y-68836589D01*
X118153475Y-68593368D01*
X118021620Y-68461513D01*
X118094180Y-68439502D01*
X118204494Y-68380537D01*
X118301185Y-68301185D01*
X118380537Y-68204494D01*
X118439502Y-68094180D01*
X118475812Y-67974482D01*
X118488072Y-67850000D01*
X118488072Y-66150000D01*
X118475812Y-66025518D01*
X118439502Y-65905820D01*
X118380537Y-65795506D01*
X118326778Y-65730000D01*
X118380537Y-65664494D01*
X118439502Y-65554180D01*
X118448783Y-65523584D01*
X122876201Y-69951003D01*
X122899999Y-69980001D01*
X122928997Y-70003799D01*
X123015724Y-70074974D01*
X123147753Y-70145546D01*
X123291014Y-70189003D01*
X123440000Y-70203677D01*
X123477333Y-70200000D01*
X126381957Y-70200000D01*
X126485363Y-70354759D01*
X126685241Y-70554637D01*
X126917759Y-70710000D01*
X126685241Y-70865363D01*
X126485363Y-71065241D01*
X126328320Y-71300273D01*
X126220147Y-71561426D01*
X126165000Y-71838665D01*
X126165000Y-72121335D01*
X126220147Y-72398574D01*
X126328320Y-72659727D01*
X126485363Y-72894759D01*
X126685241Y-73094637D01*
X126917759Y-73250000D01*
X126685241Y-73405363D01*
X126485363Y-73605241D01*
X126328320Y-73840273D01*
X126220147Y-74101426D01*
X126165000Y-74378665D01*
X126165000Y-74661335D01*
X126220147Y-74938574D01*
X126328320Y-75199727D01*
X126485363Y-75434759D01*
X126685241Y-75634637D01*
X126917759Y-75790000D01*
X126685241Y-75945363D01*
X126485363Y-76145241D01*
X126328320Y-76380273D01*
X126220147Y-76641426D01*
X126165000Y-76918665D01*
X126165000Y-77201335D01*
X126220147Y-77478574D01*
X126328320Y-77739727D01*
X126485363Y-77974759D01*
X126685241Y-78174637D01*
X126917759Y-78330000D01*
X126685241Y-78485363D01*
X126485363Y-78685241D01*
X126328320Y-78920273D01*
X126220147Y-79181426D01*
X126165000Y-79458665D01*
X126165000Y-79741335D01*
X126220147Y-80018574D01*
X126328320Y-80279727D01*
X126485363Y-80514759D01*
X126685241Y-80714637D01*
X126917759Y-80870000D01*
X126685241Y-81025363D01*
X126485363Y-81225241D01*
X126328320Y-81460273D01*
X126220147Y-81721426D01*
X126165000Y-81998665D01*
X126165000Y-82281335D01*
X126220147Y-82558574D01*
X126328320Y-82819727D01*
X126485363Y-83054759D01*
X126685241Y-83254637D01*
X126917759Y-83410000D01*
X126685241Y-83565363D01*
X126485363Y-83765241D01*
X126381957Y-83920000D01*
X125607333Y-83920000D01*
X125570000Y-83916323D01*
X125532667Y-83920000D01*
X125421014Y-83930997D01*
X125277753Y-83974454D01*
X125145724Y-84045026D01*
X125029999Y-84139999D01*
X124935026Y-84255724D01*
X124864454Y-84387753D01*
X124820997Y-84531014D01*
X124806323Y-84680000D01*
X124810001Y-84717342D01*
X124810000Y-85865198D01*
X113988998Y-96686201D01*
X113960000Y-96709999D01*
X113936202Y-96738997D01*
X113936201Y-96738998D01*
X113865026Y-96825724D01*
X113794454Y-96957754D01*
X113789718Y-96973368D01*
X113750997Y-97101014D01*
X113740000Y-97212667D01*
X113740000Y-97212678D01*
X113736324Y-97250000D01*
X113740000Y-97287322D01*
X113740000Y-97685197D01*
X111645199Y-99780000D01*
X97278178Y-99780000D01*
X97153475Y-99593368D01*
X97021620Y-99461513D01*
X97094180Y-99439502D01*
X97204494Y-99380537D01*
X97301185Y-99301185D01*
X97380537Y-99204494D01*
X97439502Y-99094180D01*
X97475812Y-98974482D01*
X97488072Y-98850000D01*
X97485000Y-98285750D01*
X97326250Y-98127000D01*
X96127000Y-98127000D01*
X96127000Y-98147000D01*
X95873000Y-98147000D01*
X95873000Y-98127000D01*
X94673750Y-98127000D01*
X94515000Y-98285750D01*
X94511928Y-98850000D01*
X92660000Y-98850000D01*
X92660000Y-97150000D01*
X94511928Y-97150000D01*
X94515000Y-97714250D01*
X94673750Y-97873000D01*
X95873000Y-97873000D01*
X95873000Y-96673750D01*
X96127000Y-96673750D01*
X96127000Y-97873000D01*
X97326250Y-97873000D01*
X97485000Y-97714250D01*
X97488072Y-97150000D01*
X97475812Y-97025518D01*
X97439502Y-96905820D01*
X97380537Y-96795506D01*
X97301185Y-96698815D01*
X97204494Y-96619463D01*
X97094180Y-96560498D01*
X96974482Y-96524188D01*
X96850000Y-96511928D01*
X96285750Y-96515000D01*
X96127000Y-96673750D01*
X95873000Y-96673750D01*
X95714250Y-96515000D01*
X95150000Y-96511928D01*
X95025518Y-96524188D01*
X94905820Y-96560498D01*
X94795506Y-96619463D01*
X94698815Y-96698815D01*
X94619463Y-96795506D01*
X94560498Y-96905820D01*
X94524188Y-97025518D01*
X94511928Y-97150000D01*
X92660000Y-97150000D01*
X92660000Y-72436890D01*
X115558524Y-72436890D01*
X115603175Y-72584099D01*
X115728359Y-72846920D01*
X115902412Y-73080269D01*
X116118645Y-73275178D01*
X116368748Y-73424157D01*
X116643109Y-73521481D01*
X116873000Y-73400814D01*
X116873000Y-72207000D01*
X117127000Y-72207000D01*
X117127000Y-73400814D01*
X117356891Y-73521481D01*
X117631252Y-73424157D01*
X117881355Y-73275178D01*
X118097588Y-73080269D01*
X118271641Y-72846920D01*
X118396825Y-72584099D01*
X118441476Y-72436890D01*
X118320155Y-72207000D01*
X117127000Y-72207000D01*
X116873000Y-72207000D01*
X115679845Y-72207000D01*
X115558524Y-72436890D01*
X92660000Y-72436890D01*
X92660000Y-61625000D01*
X101411928Y-61625000D01*
X101424188Y-61749482D01*
X101460498Y-61869180D01*
X101519463Y-61979494D01*
X101598815Y-62076185D01*
X101695506Y-62155537D01*
X101805820Y-62214502D01*
X101925518Y-62250812D01*
X102050000Y-62263072D01*
X102414250Y-62260000D01*
X102573000Y-62101250D01*
X102573000Y-60877000D01*
X102827000Y-60877000D01*
X102827000Y-62101250D01*
X102985750Y-62260000D01*
X103350000Y-62263072D01*
X103474482Y-62250812D01*
X103594180Y-62214502D01*
X103704494Y-62155537D01*
X103801185Y-62076185D01*
X103880537Y-61979494D01*
X103939502Y-61869180D01*
X103975812Y-61749482D01*
X103988072Y-61625000D01*
X104511928Y-61625000D01*
X104524188Y-61749482D01*
X104560498Y-61869180D01*
X104619463Y-61979494D01*
X104698815Y-62076185D01*
X104795506Y-62155537D01*
X104905820Y-62214502D01*
X105025518Y-62250812D01*
X105150000Y-62263072D01*
X105514250Y-62260000D01*
X105673000Y-62101250D01*
X105673000Y-60877000D01*
X105927000Y-60877000D01*
X105927000Y-62101250D01*
X106085750Y-62260000D01*
X106450000Y-62263072D01*
X106574482Y-62250812D01*
X106694180Y-62214502D01*
X106804494Y-62155537D01*
X106901185Y-62076185D01*
X106980537Y-61979494D01*
X107039502Y-61869180D01*
X107075812Y-61749482D01*
X107088072Y-61625000D01*
X107085000Y-61035750D01*
X106926250Y-60877000D01*
X105927000Y-60877000D01*
X105673000Y-60877000D01*
X104673750Y-60877000D01*
X104515000Y-61035750D01*
X104511928Y-61625000D01*
X103988072Y-61625000D01*
X103985000Y-61035750D01*
X103826250Y-60877000D01*
X102827000Y-60877000D01*
X102573000Y-60877000D01*
X101573750Y-60877000D01*
X101415000Y-61035750D01*
X101411928Y-61625000D01*
X92660000Y-61625000D01*
X92660000Y-59875000D01*
X101411928Y-59875000D01*
X101415000Y-60464250D01*
X101573750Y-60623000D01*
X102573000Y-60623000D01*
X102573000Y-59398750D01*
X102827000Y-59398750D01*
X102827000Y-60623000D01*
X103826250Y-60623000D01*
X103985000Y-60464250D01*
X103988072Y-59875000D01*
X104511928Y-59875000D01*
X104515000Y-60464250D01*
X104673750Y-60623000D01*
X105673000Y-60623000D01*
X105673000Y-59398750D01*
X105927000Y-59398750D01*
X105927000Y-60623000D01*
X106926250Y-60623000D01*
X107085000Y-60464250D01*
X107088072Y-59875000D01*
X107075812Y-59750518D01*
X107039502Y-59630820D01*
X106980537Y-59520506D01*
X106901185Y-59423815D01*
X106804494Y-59344463D01*
X106694180Y-59285498D01*
X106574482Y-59249188D01*
X106450000Y-59236928D01*
X106085750Y-59240000D01*
X105927000Y-59398750D01*
X105673000Y-59398750D01*
X105514250Y-59240000D01*
X105150000Y-59236928D01*
X105025518Y-59249188D01*
X104905820Y-59285498D01*
X104795506Y-59344463D01*
X104698815Y-59423815D01*
X104619463Y-59520506D01*
X104560498Y-59630820D01*
X104524188Y-59750518D01*
X104511928Y-59875000D01*
X103988072Y-59875000D01*
X103975812Y-59750518D01*
X103939502Y-59630820D01*
X103880537Y-59520506D01*
X103801185Y-59423815D01*
X103704494Y-59344463D01*
X103594180Y-59285498D01*
X103474482Y-59249188D01*
X103350000Y-59236928D01*
X102985750Y-59240000D01*
X102827000Y-59398750D01*
X102573000Y-59398750D01*
X102414250Y-59240000D01*
X102050000Y-59236928D01*
X101925518Y-59249188D01*
X101805820Y-59285498D01*
X101695506Y-59344463D01*
X101598815Y-59423815D01*
X101519463Y-59520506D01*
X101460498Y-59630820D01*
X101424188Y-59750518D01*
X101411928Y-59875000D01*
X92660000Y-59875000D01*
X92660000Y-58660000D01*
X163340000Y-58660000D01*
X163340001Y-111340000D01*
%TA.AperFunction,Conductor*%
D17*
G36*
X163340001Y-111340000D02*
G01*
X92660000Y-111340000D01*
X92660000Y-98850000D01*
X94511928Y-98850000D01*
X94524188Y-98974482D01*
X94560498Y-99094180D01*
X94619463Y-99204494D01*
X94698815Y-99301185D01*
X94795506Y-99380537D01*
X94905820Y-99439502D01*
X94978380Y-99461513D01*
X94846525Y-99593368D01*
X94684010Y-99836589D01*
X94572068Y-100106842D01*
X94515000Y-100393740D01*
X94515000Y-100686260D01*
X94572068Y-100973158D01*
X94684010Y-101243411D01*
X94846525Y-101486632D01*
X95053368Y-101693475D01*
X95227760Y-101810000D01*
X95053368Y-101926525D01*
X94846525Y-102133368D01*
X94684010Y-102376589D01*
X94572068Y-102646842D01*
X94515000Y-102933740D01*
X94515000Y-103226260D01*
X94572068Y-103513158D01*
X94684010Y-103783411D01*
X94846525Y-104026632D01*
X95053368Y-104233475D01*
X95296589Y-104395990D01*
X95566842Y-104507932D01*
X95853740Y-104565000D01*
X96146260Y-104565000D01*
X96433158Y-104507932D01*
X96703411Y-104395990D01*
X96946632Y-104233475D01*
X97153475Y-104026632D01*
X97315990Y-103783411D01*
X97427932Y-103513158D01*
X97485000Y-103226260D01*
X97485000Y-102933740D01*
X97427932Y-102646842D01*
X97315990Y-102376589D01*
X97153475Y-102133368D01*
X96946632Y-101926525D01*
X96772240Y-101810000D01*
X96946632Y-101693475D01*
X97153475Y-101486632D01*
X97278178Y-101300000D01*
X111922678Y-101300000D01*
X111960000Y-101303676D01*
X111997322Y-101300000D01*
X111997333Y-101300000D01*
X112108986Y-101289003D01*
X112252247Y-101245546D01*
X112384276Y-101174974D01*
X112500001Y-101080001D01*
X112523804Y-101050997D01*
X115011009Y-98563794D01*
X115040001Y-98540001D01*
X115063795Y-98511008D01*
X115063799Y-98511004D01*
X115134973Y-98424277D01*
X115134974Y-98424276D01*
X115205546Y-98292247D01*
X115249003Y-98148986D01*
X115260000Y-98037333D01*
X115260000Y-98037324D01*
X115263676Y-98000001D01*
X115260000Y-97962678D01*
X115260000Y-97564801D01*
X115836642Y-96988159D01*
X115684010Y-97216589D01*
X115572068Y-97486842D01*
X115515000Y-97773740D01*
X115515000Y-98066260D01*
X115572068Y-98353158D01*
X115684010Y-98623411D01*
X115846525Y-98866632D01*
X116053368Y-99073475D01*
X116235534Y-99195195D01*
X116118645Y-99264822D01*
X115902412Y-99459731D01*
X115728359Y-99693080D01*
X115603175Y-99955901D01*
X115558524Y-100103110D01*
X115679845Y-100333000D01*
X116873000Y-100333000D01*
X116873000Y-100313000D01*
X117127000Y-100313000D01*
X117127000Y-100333000D01*
X118320155Y-100333000D01*
X118441476Y-100103110D01*
X118396825Y-99955901D01*
X118271641Y-99693080D01*
X118097588Y-99459731D01*
X117881355Y-99264822D01*
X117764466Y-99195195D01*
X117946632Y-99073475D01*
X118153475Y-98866632D01*
X118315990Y-98623411D01*
X118427932Y-98353158D01*
X118485000Y-98066260D01*
X118485000Y-97773740D01*
X118427932Y-97486842D01*
X118315990Y-97216589D01*
X118153475Y-96973368D01*
X117946632Y-96766525D01*
X117703411Y-96604010D01*
X117433158Y-96492068D01*
X117146260Y-96435000D01*
X116853740Y-96435000D01*
X116566842Y-96492068D01*
X116296589Y-96604010D01*
X116068159Y-96756642D01*
X126081004Y-86743798D01*
X126110001Y-86720001D01*
X126136332Y-86687917D01*
X126204974Y-86604277D01*
X126275546Y-86472247D01*
X126275546Y-86472246D01*
X126319003Y-86328986D01*
X126330000Y-86217333D01*
X126330000Y-86217324D01*
X126333676Y-86180001D01*
X126330000Y-86142678D01*
X126330000Y-85440000D01*
X126381957Y-85440000D01*
X126485363Y-85594759D01*
X126685241Y-85794637D01*
X126917759Y-85950000D01*
X126685241Y-86105363D01*
X126485363Y-86305241D01*
X126328320Y-86540273D01*
X126220147Y-86801426D01*
X126165000Y-87078665D01*
X126165000Y-87361335D01*
X126220147Y-87638574D01*
X126328320Y-87899727D01*
X126485363Y-88134759D01*
X126685241Y-88334637D01*
X126917759Y-88490000D01*
X126685241Y-88645363D01*
X126485363Y-88845241D01*
X126381957Y-89000000D01*
X125277333Y-89000000D01*
X125240000Y-88996323D01*
X125202667Y-89000000D01*
X125091014Y-89010997D01*
X124947753Y-89054454D01*
X124815724Y-89125026D01*
X124699999Y-89219999D01*
X124676201Y-89248997D01*
X120488998Y-93436201D01*
X120460000Y-93459999D01*
X120436202Y-93488997D01*
X120436201Y-93488998D01*
X120365026Y-93575724D01*
X120294454Y-93707754D01*
X120250998Y-93851015D01*
X120236324Y-94000000D01*
X120240001Y-94037332D01*
X120240000Y-100685198D01*
X118685199Y-102240000D01*
X118488072Y-102240000D01*
X118488072Y-102150000D01*
X118475812Y-102025518D01*
X118439502Y-101905820D01*
X118380537Y-101795506D01*
X118301185Y-101698815D01*
X118204494Y-101619463D01*
X118094180Y-101560498D01*
X118013534Y-101536034D01*
X118097588Y-101460269D01*
X118271641Y-101226920D01*
X118396825Y-100964099D01*
X118441476Y-100816890D01*
X118320155Y-100587000D01*
X117127000Y-100587000D01*
X117127000Y-100607000D01*
X116873000Y-100607000D01*
X116873000Y-100587000D01*
X115679845Y-100587000D01*
X115558524Y-100816890D01*
X115603175Y-100964099D01*
X115728359Y-101226920D01*
X115902412Y-101460269D01*
X115986466Y-101536034D01*
X115905820Y-101560498D01*
X115795506Y-101619463D01*
X115698815Y-101698815D01*
X115619463Y-101795506D01*
X115560498Y-101905820D01*
X115524188Y-102025518D01*
X115511928Y-102150000D01*
X115511928Y-103850000D01*
X115524188Y-103974482D01*
X115560498Y-104094180D01*
X115619463Y-104204494D01*
X115698815Y-104301185D01*
X115795506Y-104380537D01*
X115905820Y-104439502D01*
X116025518Y-104475812D01*
X116150000Y-104488072D01*
X117850000Y-104488072D01*
X117974482Y-104475812D01*
X118094180Y-104439502D01*
X118204494Y-104380537D01*
X118301185Y-104301185D01*
X118380537Y-104204494D01*
X118439502Y-104094180D01*
X118475812Y-103974482D01*
X118488072Y-103850000D01*
X118488072Y-103760000D01*
X118962678Y-103760000D01*
X119000000Y-103763676D01*
X119037322Y-103760000D01*
X119037333Y-103760000D01*
X119148986Y-103749003D01*
X119292247Y-103705546D01*
X119424276Y-103634974D01*
X119540001Y-103540001D01*
X119563804Y-103510997D01*
X121511004Y-101563798D01*
X121540001Y-101540001D01*
X121583800Y-101486632D01*
X121634974Y-101424277D01*
X121705546Y-101292247D01*
X121737071Y-101188320D01*
X121749003Y-101148986D01*
X121760000Y-101037333D01*
X121760000Y-101037324D01*
X121763676Y-101000001D01*
X121760000Y-100962678D01*
X121760000Y-94314801D01*
X125554802Y-90520000D01*
X126381957Y-90520000D01*
X126485363Y-90674759D01*
X126685241Y-90874637D01*
X126917759Y-91030000D01*
X126685241Y-91185363D01*
X126485363Y-91385241D01*
X126328320Y-91620273D01*
X126220147Y-91881426D01*
X126165000Y-92158665D01*
X126165000Y-92441335D01*
X126220147Y-92718574D01*
X126328320Y-92979727D01*
X126485363Y-93214759D01*
X126685241Y-93414637D01*
X126917759Y-93570000D01*
X126685241Y-93725363D01*
X126485363Y-93925241D01*
X126328320Y-94160273D01*
X126220147Y-94421426D01*
X126165000Y-94698665D01*
X126165000Y-94981335D01*
X126220147Y-95258574D01*
X126328320Y-95519727D01*
X126485363Y-95754759D01*
X126685241Y-95954637D01*
X126917759Y-96110000D01*
X126685241Y-96265363D01*
X126485363Y-96465241D01*
X126328320Y-96700273D01*
X126220147Y-96961426D01*
X126165000Y-97238665D01*
X126165000Y-97521335D01*
X126220147Y-97798574D01*
X126328320Y-98059727D01*
X126485363Y-98294759D01*
X126685241Y-98494637D01*
X126917759Y-98650000D01*
X126685241Y-98805363D01*
X126485363Y-99005241D01*
X126328320Y-99240273D01*
X126220147Y-99501426D01*
X126165000Y-99778665D01*
X126165000Y-100061335D01*
X126220147Y-100338574D01*
X126328320Y-100599727D01*
X126485363Y-100834759D01*
X126685241Y-101034637D01*
X126917759Y-101190000D01*
X126685241Y-101345363D01*
X126485363Y-101545241D01*
X126328320Y-101780273D01*
X126220147Y-102041426D01*
X126165000Y-102318665D01*
X126165000Y-102601335D01*
X126220147Y-102878574D01*
X126328320Y-103139727D01*
X126485363Y-103374759D01*
X126685241Y-103574637D01*
X126920273Y-103731680D01*
X127181426Y-103839853D01*
X127458665Y-103895000D01*
X127741335Y-103895000D01*
X128018574Y-103839853D01*
X128279727Y-103731680D01*
X128514759Y-103574637D01*
X128714637Y-103374759D01*
X128871680Y-103139727D01*
X128979853Y-102878574D01*
X129035000Y-102601335D01*
X129035000Y-102318665D01*
X128979853Y-102041426D01*
X128871680Y-101780273D01*
X128714637Y-101545241D01*
X128514759Y-101345363D01*
X128282241Y-101190000D01*
X128514759Y-101034637D01*
X128714637Y-100834759D01*
X128871680Y-100599727D01*
X128979853Y-100338574D01*
X129035000Y-100061335D01*
X129035000Y-99778665D01*
X128979853Y-99501426D01*
X128871680Y-99240273D01*
X128714637Y-99005241D01*
X128514759Y-98805363D01*
X128282241Y-98650000D01*
X128514759Y-98494637D01*
X128714637Y-98294759D01*
X128871680Y-98059727D01*
X128979853Y-97798574D01*
X129035000Y-97521335D01*
X129035000Y-97238665D01*
X128979853Y-96961426D01*
X128871680Y-96700273D01*
X128714637Y-96465241D01*
X128514759Y-96265363D01*
X128282241Y-96110000D01*
X128514759Y-95954637D01*
X128714637Y-95754759D01*
X128871680Y-95519727D01*
X128979853Y-95258574D01*
X129035000Y-94981335D01*
X129035000Y-94698665D01*
X128979853Y-94421426D01*
X128871680Y-94160273D01*
X128714637Y-93925241D01*
X128514759Y-93725363D01*
X128282241Y-93570000D01*
X128514759Y-93414637D01*
X128714637Y-93214759D01*
X128871680Y-92979727D01*
X128979853Y-92718574D01*
X129035000Y-92441335D01*
X129035000Y-92158665D01*
X128979853Y-91881426D01*
X128871680Y-91620273D01*
X128714637Y-91385241D01*
X128514759Y-91185363D01*
X128282241Y-91030000D01*
X128514759Y-90874637D01*
X128714637Y-90674759D01*
X128871680Y-90439727D01*
X128979853Y-90178574D01*
X129035000Y-89901335D01*
X129035000Y-89618665D01*
X128979853Y-89341426D01*
X128871680Y-89080273D01*
X128714637Y-88845241D01*
X128514759Y-88645363D01*
X128282241Y-88490000D01*
X128514759Y-88334637D01*
X128714637Y-88134759D01*
X128871680Y-87899727D01*
X128979853Y-87638574D01*
X129035000Y-87361335D01*
X129035000Y-87078665D01*
X128998688Y-86896114D01*
X130331004Y-85563798D01*
X130360001Y-85540001D01*
X130442070Y-85440000D01*
X130454974Y-85424277D01*
X130525546Y-85292247D01*
X130547461Y-85220001D01*
X130569003Y-85148986D01*
X130580000Y-85037333D01*
X130580000Y-85037324D01*
X130583676Y-85000001D01*
X130580000Y-84962678D01*
X130580000Y-69298665D01*
X141405000Y-69298665D01*
X141405000Y-69581335D01*
X141460147Y-69858574D01*
X141568320Y-70119727D01*
X141725363Y-70354759D01*
X141925241Y-70554637D01*
X142157759Y-70710000D01*
X141925241Y-70865363D01*
X141725363Y-71065241D01*
X141568320Y-71300273D01*
X141460147Y-71561426D01*
X141405000Y-71838665D01*
X141405000Y-72121335D01*
X141460147Y-72398574D01*
X141568320Y-72659727D01*
X141725363Y-72894759D01*
X141925241Y-73094637D01*
X142157759Y-73250000D01*
X141925241Y-73405363D01*
X141725363Y-73605241D01*
X141568320Y-73840273D01*
X141460147Y-74101426D01*
X141405000Y-74378665D01*
X141405000Y-74661335D01*
X141460147Y-74938574D01*
X141568320Y-75199727D01*
X141725363Y-75434759D01*
X141925241Y-75634637D01*
X142157759Y-75790000D01*
X141925241Y-75945363D01*
X141725363Y-76145241D01*
X141568320Y-76380273D01*
X141460147Y-76641426D01*
X141405000Y-76918665D01*
X141405000Y-77201335D01*
X141460147Y-77478574D01*
X141568320Y-77739727D01*
X141725363Y-77974759D01*
X141925241Y-78174637D01*
X142157759Y-78330000D01*
X141925241Y-78485363D01*
X141725363Y-78685241D01*
X141568320Y-78920273D01*
X141460147Y-79181426D01*
X141405000Y-79458665D01*
X141405000Y-79741335D01*
X141460147Y-80018574D01*
X141568320Y-80279727D01*
X141725363Y-80514759D01*
X141925241Y-80714637D01*
X142157759Y-80870000D01*
X141925241Y-81025363D01*
X141725363Y-81225241D01*
X141568320Y-81460273D01*
X141460147Y-81721426D01*
X141405000Y-81998665D01*
X141405000Y-82281335D01*
X141460147Y-82558574D01*
X141568320Y-82819727D01*
X141725363Y-83054759D01*
X141925241Y-83254637D01*
X142157759Y-83410000D01*
X141925241Y-83565363D01*
X141725363Y-83765241D01*
X141568320Y-84000273D01*
X141460147Y-84261426D01*
X141405000Y-84538665D01*
X141405000Y-84821335D01*
X141460147Y-85098574D01*
X141568320Y-85359727D01*
X141725363Y-85594759D01*
X141925241Y-85794637D01*
X142157759Y-85950000D01*
X141925241Y-86105363D01*
X141725363Y-86305241D01*
X141568320Y-86540273D01*
X141460147Y-86801426D01*
X141405000Y-87078665D01*
X141405000Y-87361335D01*
X141460147Y-87638574D01*
X141568320Y-87899727D01*
X141725363Y-88134759D01*
X141925241Y-88334637D01*
X142157759Y-88490000D01*
X141925241Y-88645363D01*
X141725363Y-88845241D01*
X141568320Y-89080273D01*
X141460147Y-89341426D01*
X141405000Y-89618665D01*
X141405000Y-89901335D01*
X141460147Y-90178574D01*
X141568320Y-90439727D01*
X141725363Y-90674759D01*
X141925241Y-90874637D01*
X142157759Y-91030000D01*
X141925241Y-91185363D01*
X141725363Y-91385241D01*
X141568320Y-91620273D01*
X141460147Y-91881426D01*
X141405000Y-92158665D01*
X141405000Y-92441335D01*
X141460147Y-92718574D01*
X141568320Y-92979727D01*
X141725363Y-93214759D01*
X141925241Y-93414637D01*
X142157759Y-93570000D01*
X141925241Y-93725363D01*
X141725363Y-93925241D01*
X141568320Y-94160273D01*
X141460147Y-94421426D01*
X141405000Y-94698665D01*
X141405000Y-94981335D01*
X141460147Y-95258574D01*
X141568320Y-95519727D01*
X141725363Y-95754759D01*
X141925241Y-95954637D01*
X142157759Y-96110000D01*
X141925241Y-96265363D01*
X141725363Y-96465241D01*
X141568320Y-96700273D01*
X141460147Y-96961426D01*
X141405000Y-97238665D01*
X141405000Y-97521335D01*
X141460147Y-97798574D01*
X141568320Y-98059727D01*
X141725363Y-98294759D01*
X141925241Y-98494637D01*
X142157759Y-98650000D01*
X141925241Y-98805363D01*
X141725363Y-99005241D01*
X141568320Y-99240273D01*
X141460147Y-99501426D01*
X141405000Y-99778665D01*
X141405000Y-100061335D01*
X141460147Y-100338574D01*
X141568320Y-100599727D01*
X141725363Y-100834759D01*
X141925241Y-101034637D01*
X142157759Y-101190000D01*
X141925241Y-101345363D01*
X141725363Y-101545241D01*
X141568320Y-101780273D01*
X141460147Y-102041426D01*
X141405000Y-102318665D01*
X141405000Y-102601335D01*
X141460147Y-102878574D01*
X141568320Y-103139727D01*
X141725363Y-103374759D01*
X141925241Y-103574637D01*
X142160273Y-103731680D01*
X142421426Y-103839853D01*
X142698665Y-103895000D01*
X142981335Y-103895000D01*
X143258574Y-103839853D01*
X143519727Y-103731680D01*
X143754759Y-103574637D01*
X143954637Y-103374759D01*
X144111680Y-103139727D01*
X144219853Y-102878574D01*
X144275000Y-102601335D01*
X144275000Y-102318665D01*
X144219853Y-102041426D01*
X144111680Y-101780273D01*
X143954637Y-101545241D01*
X143754759Y-101345363D01*
X143522241Y-101190000D01*
X143754759Y-101034637D01*
X143954637Y-100834759D01*
X144111680Y-100599727D01*
X144219853Y-100338574D01*
X144275000Y-100061335D01*
X144275000Y-99778665D01*
X144219853Y-99501426D01*
X144111680Y-99240273D01*
X143954637Y-99005241D01*
X143754759Y-98805363D01*
X143522241Y-98650000D01*
X143754759Y-98494637D01*
X143954637Y-98294759D01*
X144111680Y-98059727D01*
X144219853Y-97798574D01*
X144275000Y-97521335D01*
X144275000Y-97238665D01*
X144219853Y-96961426D01*
X144111680Y-96700273D01*
X143954637Y-96465241D01*
X143754759Y-96265363D01*
X143522241Y-96110000D01*
X143754759Y-95954637D01*
X143954637Y-95754759D01*
X144111680Y-95519727D01*
X144219853Y-95258574D01*
X144275000Y-94981335D01*
X144275000Y-94698665D01*
X144219853Y-94421426D01*
X144111680Y-94160273D01*
X143954637Y-93925241D01*
X143754759Y-93725363D01*
X143522241Y-93570000D01*
X143754759Y-93414637D01*
X143954637Y-93214759D01*
X144111680Y-92979727D01*
X144219853Y-92718574D01*
X144275000Y-92441335D01*
X144275000Y-92158665D01*
X144219853Y-91881426D01*
X144111680Y-91620273D01*
X143954637Y-91385241D01*
X143754759Y-91185363D01*
X143522241Y-91030000D01*
X143754759Y-90874637D01*
X143954637Y-90674759D01*
X144111680Y-90439727D01*
X144219853Y-90178574D01*
X144275000Y-89901335D01*
X144275000Y-89618665D01*
X144219853Y-89341426D01*
X144111680Y-89080273D01*
X143954637Y-88845241D01*
X143754759Y-88645363D01*
X143522241Y-88490000D01*
X143754759Y-88334637D01*
X143954637Y-88134759D01*
X144111680Y-87899727D01*
X144219853Y-87638574D01*
X144275000Y-87361335D01*
X144275000Y-87078665D01*
X144219853Y-86801426D01*
X144111680Y-86540273D01*
X143954637Y-86305241D01*
X143754759Y-86105363D01*
X143522241Y-85950000D01*
X143754759Y-85794637D01*
X143954637Y-85594759D01*
X144058043Y-85440000D01*
X155032678Y-85440000D01*
X155070000Y-85443676D01*
X155107322Y-85440000D01*
X155107333Y-85440000D01*
X155218986Y-85429003D01*
X155362247Y-85385546D01*
X155494276Y-85314974D01*
X155610001Y-85220001D01*
X155633804Y-85190997D01*
X160381003Y-80443799D01*
X160410001Y-80420001D01*
X160436332Y-80387917D01*
X160504974Y-80304277D01*
X160575546Y-80172247D01*
X160586852Y-80134974D01*
X160619003Y-80028986D01*
X160630000Y-79917333D01*
X160630000Y-79917324D01*
X160633676Y-79880001D01*
X160630000Y-79842678D01*
X160630000Y-66028178D01*
X160816632Y-65903475D01*
X161023475Y-65696632D01*
X161185990Y-65453411D01*
X161297932Y-65183158D01*
X161355000Y-64896260D01*
X161355000Y-64603740D01*
X161297932Y-64316842D01*
X161185990Y-64046589D01*
X161023475Y-63803368D01*
X160816632Y-63596525D01*
X160573411Y-63434010D01*
X160303158Y-63322068D01*
X160016260Y-63265000D01*
X159723740Y-63265000D01*
X159436842Y-63322068D01*
X159166589Y-63434010D01*
X158923368Y-63596525D01*
X158716525Y-63803368D01*
X158600000Y-63977760D01*
X158483475Y-63803368D01*
X158276632Y-63596525D01*
X158033411Y-63434010D01*
X157763158Y-63322068D01*
X157476260Y-63265000D01*
X157183740Y-63265000D01*
X156896842Y-63322068D01*
X156626589Y-63434010D01*
X156383368Y-63596525D01*
X156176525Y-63803368D01*
X156054805Y-63985534D01*
X155985178Y-63868645D01*
X155790269Y-63652412D01*
X155556920Y-63478359D01*
X155294099Y-63353175D01*
X155146890Y-63308524D01*
X154917000Y-63429845D01*
X154917000Y-64623000D01*
X154937000Y-64623000D01*
X154937000Y-64877000D01*
X154917000Y-64877000D01*
X154917000Y-66070155D01*
X155146890Y-66191476D01*
X155294099Y-66146825D01*
X155556920Y-66021641D01*
X155790269Y-65847588D01*
X155985178Y-65631355D01*
X156054805Y-65514466D01*
X156176525Y-65696632D01*
X156383368Y-65903475D01*
X156570000Y-66028179D01*
X156570000Y-66792677D01*
X156566324Y-66830000D01*
X156570000Y-66867322D01*
X156570000Y-66867332D01*
X156580997Y-66978985D01*
X156619781Y-67106842D01*
X156624454Y-67122246D01*
X156695026Y-67254276D01*
X156726188Y-67292246D01*
X156789999Y-67370001D01*
X156819003Y-67393804D01*
X158490001Y-69064803D01*
X158490000Y-79185198D01*
X154685199Y-82990000D01*
X144764802Y-82990000D01*
X144238688Y-82463886D01*
X144275000Y-82281335D01*
X144275000Y-81998665D01*
X144219853Y-81721426D01*
X144111680Y-81460273D01*
X143954637Y-81225241D01*
X143754759Y-81025363D01*
X143522241Y-80870000D01*
X143754759Y-80714637D01*
X143954637Y-80514759D01*
X144111680Y-80279727D01*
X144219853Y-80018574D01*
X144275000Y-79741335D01*
X144275000Y-79458665D01*
X144219853Y-79181426D01*
X144111680Y-78920273D01*
X143954637Y-78685241D01*
X143754759Y-78485363D01*
X143522241Y-78330000D01*
X143754759Y-78174637D01*
X143954637Y-77974759D01*
X144111680Y-77739727D01*
X144219853Y-77478574D01*
X144275000Y-77201335D01*
X144275000Y-76918665D01*
X144219853Y-76641426D01*
X144111680Y-76380273D01*
X143954637Y-76145241D01*
X143754759Y-75945363D01*
X143522241Y-75790000D01*
X143754759Y-75634637D01*
X143954637Y-75434759D01*
X144111680Y-75199727D01*
X144219853Y-74938574D01*
X144275000Y-74661335D01*
X144275000Y-74378665D01*
X144219853Y-74101426D01*
X144111680Y-73840273D01*
X143954637Y-73605241D01*
X143754759Y-73405363D01*
X143522241Y-73250000D01*
X143754759Y-73094637D01*
X143954637Y-72894759D01*
X144111680Y-72659727D01*
X144219853Y-72398574D01*
X144275000Y-72121335D01*
X144275000Y-71838665D01*
X144219853Y-71561426D01*
X144111680Y-71300273D01*
X143954637Y-71065241D01*
X143754759Y-70865363D01*
X143522241Y-70710000D01*
X143754759Y-70554637D01*
X143954637Y-70354759D01*
X144111680Y-70119727D01*
X144219853Y-69858574D01*
X144275000Y-69581335D01*
X144275000Y-69298665D01*
X144219853Y-69021426D01*
X144111680Y-68760273D01*
X143954637Y-68525241D01*
X143754759Y-68325363D01*
X143519727Y-68168320D01*
X143509135Y-68163933D01*
X143695131Y-68052385D01*
X143903519Y-67863414D01*
X144071037Y-67637420D01*
X144191246Y-67383087D01*
X144231904Y-67249039D01*
X144109915Y-67027000D01*
X142967000Y-67027000D01*
X142967000Y-67047000D01*
X142713000Y-67047000D01*
X142713000Y-67027000D01*
X141570085Y-67027000D01*
X141448096Y-67249039D01*
X141488754Y-67383087D01*
X141608963Y-67637420D01*
X141776481Y-67863414D01*
X141984869Y-68052385D01*
X142170865Y-68163933D01*
X142160273Y-68168320D01*
X141925241Y-68325363D01*
X141725363Y-68525241D01*
X141568320Y-68760273D01*
X141460147Y-69021426D01*
X141405000Y-69298665D01*
X130580000Y-69298665D01*
X130580000Y-66550961D01*
X141448096Y-66550961D01*
X141570085Y-66773000D01*
X142713000Y-66773000D01*
X142713000Y-65629376D01*
X142967000Y-65629376D01*
X142967000Y-66773000D01*
X144109915Y-66773000D01*
X144231904Y-66550961D01*
X144191246Y-66416913D01*
X144071037Y-66162580D01*
X143903519Y-65936586D01*
X143695131Y-65747615D01*
X143453881Y-65602930D01*
X143189040Y-65508091D01*
X142967000Y-65629376D01*
X142713000Y-65629376D01*
X142490960Y-65508091D01*
X142226119Y-65602930D01*
X141984869Y-65747615D01*
X141776481Y-65936586D01*
X141608963Y-66162580D01*
X141488754Y-66416913D01*
X141448096Y-66550961D01*
X130580000Y-66550961D01*
X130580000Y-64857323D01*
X130583676Y-64820000D01*
X130580000Y-64782677D01*
X130580000Y-64782667D01*
X130569003Y-64671014D01*
X130525546Y-64527753D01*
X130454974Y-64395724D01*
X130360001Y-64279999D01*
X130331003Y-64256201D01*
X129974802Y-63900000D01*
X150761928Y-63900000D01*
X150761928Y-65600000D01*
X150774188Y-65724482D01*
X150810498Y-65844180D01*
X150869463Y-65954494D01*
X150948815Y-66051185D01*
X151045506Y-66130537D01*
X151155820Y-66189502D01*
X151275518Y-66225812D01*
X151400000Y-66238072D01*
X153100000Y-66238072D01*
X153224482Y-66225812D01*
X153344180Y-66189502D01*
X153454494Y-66130537D01*
X153551185Y-66051185D01*
X153630537Y-65954494D01*
X153689502Y-65844180D01*
X153713966Y-65763534D01*
X153789731Y-65847588D01*
X154023080Y-66021641D01*
X154285901Y-66146825D01*
X154433110Y-66191476D01*
X154663000Y-66070155D01*
X154663000Y-64877000D01*
X154643000Y-64877000D01*
X154643000Y-64623000D01*
X154663000Y-64623000D01*
X154663000Y-63429845D01*
X154433110Y-63308524D01*
X154285901Y-63353175D01*
X154023080Y-63478359D01*
X153789731Y-63652412D01*
X153713966Y-63736466D01*
X153689502Y-63655820D01*
X153630537Y-63545506D01*
X153551185Y-63448815D01*
X153454494Y-63369463D01*
X153344180Y-63310498D01*
X153224482Y-63274188D01*
X153100000Y-63261928D01*
X151400000Y-63261928D01*
X151275518Y-63274188D01*
X151155820Y-63310498D01*
X151045506Y-63369463D01*
X150948815Y-63448815D01*
X150869463Y-63545506D01*
X150810498Y-63655820D01*
X150774188Y-63775518D01*
X150761928Y-63900000D01*
X129974802Y-63900000D01*
X126563804Y-60489003D01*
X126540001Y-60459999D01*
X126424276Y-60365026D01*
X126292247Y-60294454D01*
X126148986Y-60250997D01*
X126037333Y-60240000D01*
X126037322Y-60240000D01*
X126000000Y-60236324D01*
X125962678Y-60240000D01*
X111037325Y-60240000D01*
X111000000Y-60236324D01*
X110962675Y-60240000D01*
X110962667Y-60240000D01*
X110851014Y-60250997D01*
X110707753Y-60294454D01*
X110575724Y-60365026D01*
X110459999Y-60459999D01*
X110436201Y-60488997D01*
X104145199Y-66780000D01*
X100818178Y-66780000D01*
X100693475Y-66593368D01*
X100486632Y-66386525D01*
X100304466Y-66264805D01*
X100421355Y-66195178D01*
X100637588Y-66000269D01*
X100811641Y-65766920D01*
X100936825Y-65504099D01*
X100981476Y-65356890D01*
X100860155Y-65127000D01*
X99667000Y-65127000D01*
X99667000Y-65147000D01*
X99413000Y-65147000D01*
X99413000Y-65127000D01*
X99393000Y-65127000D01*
X99393000Y-64873000D01*
X99413000Y-64873000D01*
X99413000Y-63679186D01*
X99667000Y-63679186D01*
X99667000Y-64873000D01*
X100860155Y-64873000D01*
X100981476Y-64643110D01*
X100936825Y-64495901D01*
X100811641Y-64233080D01*
X100637588Y-63999731D01*
X100421355Y-63804822D01*
X100171252Y-63655843D01*
X99896891Y-63558519D01*
X99667000Y-63679186D01*
X99413000Y-63679186D01*
X99183109Y-63558519D01*
X98908748Y-63655843D01*
X98658645Y-63804822D01*
X98462498Y-63981626D01*
X98439502Y-63905820D01*
X98380537Y-63795506D01*
X98301185Y-63698815D01*
X98204494Y-63619463D01*
X98094180Y-63560498D01*
X97974482Y-63524188D01*
X97850000Y-63511928D01*
X96150000Y-63511928D01*
X96025518Y-63524188D01*
X95905820Y-63560498D01*
X95795506Y-63619463D01*
X95698815Y-63698815D01*
X95619463Y-63795506D01*
X95560498Y-63905820D01*
X95524188Y-64025518D01*
X95511928Y-64150000D01*
X95511928Y-65850000D01*
X95524188Y-65974482D01*
X95560498Y-66094180D01*
X95619463Y-66204494D01*
X95698815Y-66301185D01*
X95795506Y-66380537D01*
X95905820Y-66439502D01*
X95978380Y-66461513D01*
X95846525Y-66593368D01*
X95684010Y-66836589D01*
X95572068Y-67106842D01*
X95515000Y-67393740D01*
X95515000Y-67686260D01*
X95572068Y-67973158D01*
X95684010Y-68243411D01*
X95846525Y-68486632D01*
X96053368Y-68693475D01*
X96227760Y-68810000D01*
X96053368Y-68926525D01*
X95846525Y-69133368D01*
X95684010Y-69376589D01*
X95572068Y-69646842D01*
X95515000Y-69933740D01*
X95515000Y-70226260D01*
X95572068Y-70513158D01*
X95684010Y-70783411D01*
X95846525Y-71026632D01*
X96053368Y-71233475D01*
X96296589Y-71395990D01*
X96566842Y-71507932D01*
X96853740Y-71565000D01*
X97146260Y-71565000D01*
X97433158Y-71507932D01*
X97703411Y-71395990D01*
X97946632Y-71233475D01*
X98153475Y-71026632D01*
X98270000Y-70852240D01*
X98386525Y-71026632D01*
X98593368Y-71233475D01*
X98836589Y-71395990D01*
X99106842Y-71507932D01*
X99393740Y-71565000D01*
X99686260Y-71565000D01*
X99973158Y-71507932D01*
X100243411Y-71395990D01*
X100486632Y-71233475D01*
X100624107Y-71096000D01*
X106299629Y-71096000D01*
X106311595Y-71118386D01*
X106422038Y-71252962D01*
X106556614Y-71363405D01*
X106710150Y-71445472D01*
X106876746Y-71496008D01*
X107050000Y-71513072D01*
X107850000Y-71513072D01*
X108023254Y-71496008D01*
X108189850Y-71445472D01*
X108343386Y-71363405D01*
X108477962Y-71252962D01*
X108588405Y-71118386D01*
X108670472Y-70964850D01*
X108721008Y-70798254D01*
X108738072Y-70625000D01*
X108738072Y-69375000D01*
X108721008Y-69201746D01*
X108670472Y-69035150D01*
X108588405Y-68881614D01*
X108477962Y-68747038D01*
X108343386Y-68636595D01*
X108189850Y-68554528D01*
X108023254Y-68503992D01*
X107850000Y-68486928D01*
X107050000Y-68486928D01*
X106876746Y-68503992D01*
X106710150Y-68554528D01*
X106556614Y-68636595D01*
X106422038Y-68747038D01*
X106311595Y-68881614D01*
X106229528Y-69035150D01*
X106220777Y-69064000D01*
X100624107Y-69064000D01*
X100486632Y-68926525D01*
X100312240Y-68810000D01*
X100486632Y-68693475D01*
X100693475Y-68486632D01*
X100818178Y-68300000D01*
X104422678Y-68300000D01*
X104460000Y-68303676D01*
X104497322Y-68300000D01*
X104497333Y-68300000D01*
X104608986Y-68289003D01*
X104752247Y-68245546D01*
X104884276Y-68174974D01*
X105000001Y-68080001D01*
X105023804Y-68050997D01*
X111314802Y-61760000D01*
X115165198Y-61760000D01*
X113488998Y-63436201D01*
X113460000Y-63459999D01*
X113436202Y-63488997D01*
X113436201Y-63488998D01*
X113365026Y-63575724D01*
X113294454Y-63707754D01*
X113273899Y-63775518D01*
X113250998Y-63851014D01*
X113240001Y-63962667D01*
X113236324Y-64000000D01*
X113240001Y-64037332D01*
X113240000Y-65612675D01*
X113236324Y-65649998D01*
X113240000Y-65687320D01*
X113240000Y-65687330D01*
X113250997Y-65798983D01*
X113281489Y-65899502D01*
X113294454Y-65942244D01*
X113365026Y-66074274D01*
X113381363Y-66094180D01*
X113459999Y-66189999D01*
X113489003Y-66213802D01*
X113611197Y-66335996D01*
X113635000Y-66365000D01*
X113750725Y-66459973D01*
X113882754Y-66530545D01*
X114026015Y-66574002D01*
X114137668Y-66584999D01*
X114137676Y-66584999D01*
X114175001Y-66588675D01*
X114212326Y-66584999D01*
X115510198Y-66584999D01*
X115511928Y-66586729D01*
X115511928Y-67850000D01*
X115524188Y-67974482D01*
X115560498Y-68094180D01*
X115619463Y-68204494D01*
X115698815Y-68301185D01*
X115795506Y-68380537D01*
X115905820Y-68439502D01*
X115978380Y-68461513D01*
X115846525Y-68593368D01*
X115684010Y-68836589D01*
X115622951Y-68984000D01*
X111743132Y-68984000D01*
X111688405Y-68881614D01*
X111577962Y-68747038D01*
X111443386Y-68636595D01*
X111289850Y-68554528D01*
X111123254Y-68503992D01*
X110950000Y-68486928D01*
X110150000Y-68486928D01*
X109976746Y-68503992D01*
X109810150Y-68554528D01*
X109656614Y-68636595D01*
X109522038Y-68747038D01*
X109411595Y-68881614D01*
X109329528Y-69035150D01*
X109278992Y-69201746D01*
X109261928Y-69375000D01*
X109261928Y-70625000D01*
X109278992Y-70798254D01*
X109329528Y-70964850D01*
X109411595Y-71118386D01*
X109522038Y-71252962D01*
X109656614Y-71363405D01*
X109810150Y-71445472D01*
X109976746Y-71496008D01*
X110150000Y-71513072D01*
X110950000Y-71513072D01*
X111123254Y-71496008D01*
X111289850Y-71445472D01*
X111443386Y-71363405D01*
X111577962Y-71252962D01*
X111688405Y-71118386D01*
X111743132Y-71016000D01*
X115973115Y-71016000D01*
X115902412Y-71079731D01*
X115728359Y-71313080D01*
X115603175Y-71575901D01*
X115558524Y-71723110D01*
X115679845Y-71953000D01*
X116873000Y-71953000D01*
X116873000Y-71933000D01*
X117127000Y-71933000D01*
X117127000Y-71953000D01*
X118320155Y-71953000D01*
X118441476Y-71723110D01*
X118396825Y-71575901D01*
X118271641Y-71313080D01*
X118097588Y-71079731D01*
X117881355Y-70884822D01*
X117764466Y-70815195D01*
X117946632Y-70693475D01*
X118153475Y-70486632D01*
X118315990Y-70243411D01*
X118427932Y-69973158D01*
X118485000Y-69686260D01*
X118485000Y-69393740D01*
X118427932Y-69106842D01*
X118315990Y-68836589D01*
X118153475Y-68593368D01*
X118021620Y-68461513D01*
X118094180Y-68439502D01*
X118204494Y-68380537D01*
X118301185Y-68301185D01*
X118380537Y-68204494D01*
X118439502Y-68094180D01*
X118475812Y-67974482D01*
X118488072Y-67850000D01*
X118488072Y-66150000D01*
X118475812Y-66025518D01*
X118439502Y-65905820D01*
X118380537Y-65795506D01*
X118326778Y-65730000D01*
X118380537Y-65664494D01*
X118439502Y-65554180D01*
X118448783Y-65523584D01*
X122876201Y-69951003D01*
X122899999Y-69980001D01*
X122928997Y-70003799D01*
X123015724Y-70074974D01*
X123147753Y-70145546D01*
X123291014Y-70189003D01*
X123440000Y-70203677D01*
X123477333Y-70200000D01*
X126381957Y-70200000D01*
X126485363Y-70354759D01*
X126685241Y-70554637D01*
X126917759Y-70710000D01*
X126685241Y-70865363D01*
X126485363Y-71065241D01*
X126328320Y-71300273D01*
X126220147Y-71561426D01*
X126165000Y-71838665D01*
X126165000Y-72121335D01*
X126220147Y-72398574D01*
X126328320Y-72659727D01*
X126485363Y-72894759D01*
X126685241Y-73094637D01*
X126917759Y-73250000D01*
X126685241Y-73405363D01*
X126485363Y-73605241D01*
X126328320Y-73840273D01*
X126220147Y-74101426D01*
X126165000Y-74378665D01*
X126165000Y-74661335D01*
X126220147Y-74938574D01*
X126328320Y-75199727D01*
X126485363Y-75434759D01*
X126685241Y-75634637D01*
X126917759Y-75790000D01*
X126685241Y-75945363D01*
X126485363Y-76145241D01*
X126328320Y-76380273D01*
X126220147Y-76641426D01*
X126165000Y-76918665D01*
X126165000Y-77201335D01*
X126220147Y-77478574D01*
X126328320Y-77739727D01*
X126485363Y-77974759D01*
X126685241Y-78174637D01*
X126917759Y-78330000D01*
X126685241Y-78485363D01*
X126485363Y-78685241D01*
X126328320Y-78920273D01*
X126220147Y-79181426D01*
X126165000Y-79458665D01*
X126165000Y-79741335D01*
X126220147Y-80018574D01*
X126328320Y-80279727D01*
X126485363Y-80514759D01*
X126685241Y-80714637D01*
X126917759Y-80870000D01*
X126685241Y-81025363D01*
X126485363Y-81225241D01*
X126328320Y-81460273D01*
X126220147Y-81721426D01*
X126165000Y-81998665D01*
X126165000Y-82281335D01*
X126220147Y-82558574D01*
X126328320Y-82819727D01*
X126485363Y-83054759D01*
X126685241Y-83254637D01*
X126917759Y-83410000D01*
X126685241Y-83565363D01*
X126485363Y-83765241D01*
X126381957Y-83920000D01*
X125607333Y-83920000D01*
X125570000Y-83916323D01*
X125532667Y-83920000D01*
X125421014Y-83930997D01*
X125277753Y-83974454D01*
X125145724Y-84045026D01*
X125029999Y-84139999D01*
X124935026Y-84255724D01*
X124864454Y-84387753D01*
X124820997Y-84531014D01*
X124806323Y-84680000D01*
X124810001Y-84717342D01*
X124810000Y-85865198D01*
X113988998Y-96686201D01*
X113960000Y-96709999D01*
X113936202Y-96738997D01*
X113936201Y-96738998D01*
X113865026Y-96825724D01*
X113794454Y-96957754D01*
X113789718Y-96973368D01*
X113750997Y-97101014D01*
X113740000Y-97212667D01*
X113740000Y-97212678D01*
X113736324Y-97250000D01*
X113740000Y-97287322D01*
X113740000Y-97685197D01*
X111645199Y-99780000D01*
X97278178Y-99780000D01*
X97153475Y-99593368D01*
X97021620Y-99461513D01*
X97094180Y-99439502D01*
X97204494Y-99380537D01*
X97301185Y-99301185D01*
X97380537Y-99204494D01*
X97439502Y-99094180D01*
X97475812Y-98974482D01*
X97488072Y-98850000D01*
X97485000Y-98285750D01*
X97326250Y-98127000D01*
X96127000Y-98127000D01*
X96127000Y-98147000D01*
X95873000Y-98147000D01*
X95873000Y-98127000D01*
X94673750Y-98127000D01*
X94515000Y-98285750D01*
X94511928Y-98850000D01*
X92660000Y-98850000D01*
X92660000Y-97150000D01*
X94511928Y-97150000D01*
X94515000Y-97714250D01*
X94673750Y-97873000D01*
X95873000Y-97873000D01*
X95873000Y-96673750D01*
X96127000Y-96673750D01*
X96127000Y-97873000D01*
X97326250Y-97873000D01*
X97485000Y-97714250D01*
X97488072Y-97150000D01*
X97475812Y-97025518D01*
X97439502Y-96905820D01*
X97380537Y-96795506D01*
X97301185Y-96698815D01*
X97204494Y-96619463D01*
X97094180Y-96560498D01*
X96974482Y-96524188D01*
X96850000Y-96511928D01*
X96285750Y-96515000D01*
X96127000Y-96673750D01*
X95873000Y-96673750D01*
X95714250Y-96515000D01*
X95150000Y-96511928D01*
X95025518Y-96524188D01*
X94905820Y-96560498D01*
X94795506Y-96619463D01*
X94698815Y-96698815D01*
X94619463Y-96795506D01*
X94560498Y-96905820D01*
X94524188Y-97025518D01*
X94511928Y-97150000D01*
X92660000Y-97150000D01*
X92660000Y-72436890D01*
X115558524Y-72436890D01*
X115603175Y-72584099D01*
X115728359Y-72846920D01*
X115902412Y-73080269D01*
X116118645Y-73275178D01*
X116368748Y-73424157D01*
X116643109Y-73521481D01*
X116873000Y-73400814D01*
X116873000Y-72207000D01*
X117127000Y-72207000D01*
X117127000Y-73400814D01*
X117356891Y-73521481D01*
X117631252Y-73424157D01*
X117881355Y-73275178D01*
X118097588Y-73080269D01*
X118271641Y-72846920D01*
X118396825Y-72584099D01*
X118441476Y-72436890D01*
X118320155Y-72207000D01*
X117127000Y-72207000D01*
X116873000Y-72207000D01*
X115679845Y-72207000D01*
X115558524Y-72436890D01*
X92660000Y-72436890D01*
X92660000Y-61625000D01*
X101411928Y-61625000D01*
X101424188Y-61749482D01*
X101460498Y-61869180D01*
X101519463Y-61979494D01*
X101598815Y-62076185D01*
X101695506Y-62155537D01*
X101805820Y-62214502D01*
X101925518Y-62250812D01*
X102050000Y-62263072D01*
X102414250Y-62260000D01*
X102573000Y-62101250D01*
X102573000Y-60877000D01*
X102827000Y-60877000D01*
X102827000Y-62101250D01*
X102985750Y-62260000D01*
X103350000Y-62263072D01*
X103474482Y-62250812D01*
X103594180Y-62214502D01*
X103704494Y-62155537D01*
X103801185Y-62076185D01*
X103880537Y-61979494D01*
X103939502Y-61869180D01*
X103975812Y-61749482D01*
X103988072Y-61625000D01*
X104511928Y-61625000D01*
X104524188Y-61749482D01*
X104560498Y-61869180D01*
X104619463Y-61979494D01*
X104698815Y-62076185D01*
X104795506Y-62155537D01*
X104905820Y-62214502D01*
X105025518Y-62250812D01*
X105150000Y-62263072D01*
X105514250Y-62260000D01*
X105673000Y-62101250D01*
X105673000Y-60877000D01*
X105927000Y-60877000D01*
X105927000Y-62101250D01*
X106085750Y-62260000D01*
X106450000Y-62263072D01*
X106574482Y-62250812D01*
X106694180Y-62214502D01*
X106804494Y-62155537D01*
X106901185Y-62076185D01*
X106980537Y-61979494D01*
X107039502Y-61869180D01*
X107075812Y-61749482D01*
X107088072Y-61625000D01*
X107085000Y-61035750D01*
X106926250Y-60877000D01*
X105927000Y-60877000D01*
X105673000Y-60877000D01*
X104673750Y-60877000D01*
X104515000Y-61035750D01*
X104511928Y-61625000D01*
X103988072Y-61625000D01*
X103985000Y-61035750D01*
X103826250Y-60877000D01*
X102827000Y-60877000D01*
X102573000Y-60877000D01*
X101573750Y-60877000D01*
X101415000Y-61035750D01*
X101411928Y-61625000D01*
X92660000Y-61625000D01*
X92660000Y-59875000D01*
X101411928Y-59875000D01*
X101415000Y-60464250D01*
X101573750Y-60623000D01*
X102573000Y-60623000D01*
X102573000Y-59398750D01*
X102827000Y-59398750D01*
X102827000Y-60623000D01*
X103826250Y-60623000D01*
X103985000Y-60464250D01*
X103988072Y-59875000D01*
X104511928Y-59875000D01*
X104515000Y-60464250D01*
X104673750Y-60623000D01*
X105673000Y-60623000D01*
X105673000Y-59398750D01*
X105927000Y-59398750D01*
X105927000Y-60623000D01*
X106926250Y-60623000D01*
X107085000Y-60464250D01*
X107088072Y-59875000D01*
X107075812Y-59750518D01*
X107039502Y-59630820D01*
X106980537Y-59520506D01*
X106901185Y-59423815D01*
X106804494Y-59344463D01*
X106694180Y-59285498D01*
X106574482Y-59249188D01*
X106450000Y-59236928D01*
X106085750Y-59240000D01*
X105927000Y-59398750D01*
X105673000Y-59398750D01*
X105514250Y-59240000D01*
X105150000Y-59236928D01*
X105025518Y-59249188D01*
X104905820Y-59285498D01*
X104795506Y-59344463D01*
X104698815Y-59423815D01*
X104619463Y-59520506D01*
X104560498Y-59630820D01*
X104524188Y-59750518D01*
X104511928Y-59875000D01*
X103988072Y-59875000D01*
X103975812Y-59750518D01*
X103939502Y-59630820D01*
X103880537Y-59520506D01*
X103801185Y-59423815D01*
X103704494Y-59344463D01*
X103594180Y-59285498D01*
X103474482Y-59249188D01*
X103350000Y-59236928D01*
X102985750Y-59240000D01*
X102827000Y-59398750D01*
X102573000Y-59398750D01*
X102414250Y-59240000D01*
X102050000Y-59236928D01*
X101925518Y-59249188D01*
X101805820Y-59285498D01*
X101695506Y-59344463D01*
X101598815Y-59423815D01*
X101519463Y-59520506D01*
X101460498Y-59630820D01*
X101424188Y-59750518D01*
X101411928Y-59875000D01*
X92660000Y-59875000D01*
X92660000Y-58660000D01*
X163340000Y-58660000D01*
X163340001Y-111340000D01*
G37*
%TD.AperFunction*%
%TD*%
M02*
