%TF.GenerationSoftware,KiCad,Pcbnew,(5.1.9)-1*%
%TF.CreationDate,2021-01-22T19:23:28+08:00*%
%TF.ProjectId,SmartLight,536d6172-744c-4696-9768-742e6b696361,rev?*%
%TF.SameCoordinates,Original*%
%TF.FileFunction,Soldermask,Bot*%
%TF.FilePolarity,Negative*%
%FSLAX46Y46*%
G04 Gerber Fmt 4.6, Leading zero omitted, Abs format (unit mm)*
G04 Created by KiCad (PCBNEW (5.1.9)-1) date 2021-01-22 19:23:28*
%MOMM*%
%LPD*%
G01*
G04 APERTURE LIST*
%ADD10O,1.700000X1.700000*%
%ADD11R,1.700000X1.700000*%
%ADD12O,1.600000X1.600000*%
%ADD13R,1.600000X1.600000*%
G04 APERTURE END LIST*
D10*
%TO.C,J5*%
X159870000Y-64750000D03*
X157330000Y-64750000D03*
X154790000Y-64750000D03*
D11*
X152250000Y-64750000D03*
%TD*%
D10*
%TO.C,J4*%
X117000000Y-97920000D03*
X117000000Y-100460000D03*
D11*
X117000000Y-103000000D03*
%TD*%
D10*
%TO.C,J3*%
X99540000Y-70080000D03*
X97000000Y-70080000D03*
X99540000Y-67540000D03*
X97000000Y-67540000D03*
X99540000Y-65000000D03*
D11*
X97000000Y-65000000D03*
%TD*%
D10*
%TO.C,J2*%
X117000000Y-72080000D03*
X117000000Y-69540000D03*
D11*
X117000000Y-67000000D03*
X117000000Y-64460000D03*
%TD*%
D10*
%TO.C,J1*%
X96000000Y-103080000D03*
X96000000Y-100540000D03*
D11*
X96000000Y-98000000D03*
%TD*%
D12*
%TO.C,A1*%
X142840000Y-102460000D03*
X127600000Y-102460000D03*
X142840000Y-66900000D03*
X127600000Y-99920000D03*
X142840000Y-69440000D03*
X127600000Y-97380000D03*
X142840000Y-71980000D03*
X127600000Y-94840000D03*
X142840000Y-74520000D03*
X127600000Y-92300000D03*
X142840000Y-77060000D03*
X127600000Y-89760000D03*
X142840000Y-79600000D03*
X127600000Y-87220000D03*
X142840000Y-82140000D03*
X127600000Y-84680000D03*
X142840000Y-84680000D03*
X127600000Y-82140000D03*
X142840000Y-87220000D03*
X127600000Y-79600000D03*
X142840000Y-89760000D03*
X127600000Y-77060000D03*
X142840000Y-92300000D03*
X127600000Y-74520000D03*
X142840000Y-94840000D03*
X127600000Y-71980000D03*
X142840000Y-97380000D03*
X127600000Y-69440000D03*
X142840000Y-99920000D03*
D13*
X127600000Y-66900000D03*
%TD*%
M02*
